<svg viewBox="0 0 90 90" xmlns="http://www.w3.org/2000/svg"><path d="m12.25 81.11v4.3a2.79 2.79 0 0 0 2.75 2.79h60a2.79 2.79 0 0 0 2.79-2.79v-80.82a2.79 2.79 0 0 0 -2.79-2.79h-36.16l-26.59 25.2v57" fill="#fff"/><path d="m12.25 28.16h23.69a2.79 2.79 0 0 0 2.79-2.79v-22.18" fill="#ff8898"/><path d="m46.8 32.29 5.01 10.15 11.19 1.62-8.1 7.9 1.91 11.15-10.01-5.27-10.01 5.27 1.91-11.15-8.1-7.9 11.19-1.62z" fill="#ffeb97"/><g fill="#576065"><path d="m75 90h-60a4.59 4.59 0 0 1 -4.59-4.59v-58.41a1.8 1.8 0 0 1 .59-1.31l26.61-25.2a1.8 1.8 0 0 1 1.23-.49h36.16a4.59 4.59 0 0 1 4.59 4.59v80.82a4.59 4.59 0 0 1 -4.59 4.59zm-60.95-8.89v4.3a1 1 0 0 0 1 1h59.95a1 1 0 0 0 1-1v-80.82a1 1 0 0 0 -1-1h-35.44l-25.51 24.19z"/><path d="m35.94 30h-23.69a1.8 1.8 0 0 1 0-3.6h23.69a1 1 0 0 0 1-1v-22.21a1.8 1.8 0 0 1 3.6 0v22.18a4.59 4.59 0 0 1 -4.6 4.63z"/><path d="m56.81 64.91a1.8 1.8 0 0 1 -.81-.21l-9.2-4.82-9.18 4.82a1.8 1.8 0 0 1 -2.62-1.9l1.75-10.22-7.42-7.24a1.8 1.8 0 0 1 1-3.07l10.27-1.48 4.59-9.3a1.87 1.87 0 0 1 3.23 0l4.58 9.3 10.26 1.49a1.8 1.8 0 0 1 1 3.07l-7.42 7.24 1.75 10.21a1.8 1.8 0 0 1 -1.77 2.1zm-10.01-8.91a1.79 1.79 0 0 1 .84.21l6.79 3.57-1.3-7.55a1.8 1.8 0 0 1 .52-1.59l5.49-5.35-7.58-1.1a1.8 1.8 0 0 1 -1.36-1l-3.4-6.83-3.39 6.87a1.8 1.8 0 0 1 -1.36 1l-7.58 1.1 5.53 5.34a1.8 1.8 0 0 1 .52 1.59l-1.3 7.55 6.78-3.56a1.79 1.79 0 0 1 .8-.25z"/></g></svg>