<svg xmlns="http://www.w3.org/2000/svg" xmlns:xlink="http://www.w3.org/1999/xlink" viewBox="0 0 700 500" xmlns:v="https://vecta.io/nano"><style>.B{isolation:isolate}.J{mix-blend-mode:multiply}</style><defs><linearGradient id="A" x1="618.76" y1="384.69" x2="280.66" y2="384.69" gradientUnits="userSpaceOnUse"><stop offset="0" stop-opacity=".7"/><stop offset="1" stop-opacity="0"/></linearGradient><clipPath id="B"><rect x="202.3" y="138.9" width="304.66" height="194.54" rx="8.38" fill="none"/></clipPath><clipPath id="C"><circle cx="160.81" cy="177.94" r="27.39" fill="none"/></clipPath><linearGradient id="D" x1="160.92" y1="181.17" x2="160.92" y2="195.7" gradientUnits="userSpaceOnUse"><stop offset="0" stop-color="#edaa99"/><stop offset="1" stop-color="#fddac4"/></linearGradient><clipPath id="E"><circle cx="580.1" cy="238.32" r="22.19" fill="none"/></clipPath><linearGradient id="F" x1="579.82" y1="233.93" x2="580" y2="254.71" xlink:href="#D"/><clipPath id="G"><circle cx="506.38" cy="87.75" r="23.12" fill="none"/></clipPath><linearGradient id="H" x1="506.17" y1="91.29" x2="506.26" y2="99.77" xlink:href="#D"/><path id="I" d="M252.94 246.92H214.5v-7.4a7.39 7.39 0 0 1 7.39-7.39h31.05a7.39 7.39 0 0 1 7.39 7.39h0a7.38 7.38 0 0 1-7.38 7.39z"/></defs><g class="B"><g><g opacity=".2"><g fill="#98dba1"><circle cx="195.13" cy="63.15" r="23.08"/><circle cx="424.51" cy="466.19" r="15.49"/></g><circle cx="280.67" cy="434.57" r="32.3" fill="#80d2fe"/><g fill="#92bbff"><circle cx="594.05" cy="122.58" r="21.43"/><circle cx="553.33" cy="421.29" r="19.59"/></g><circle cx="198.95" cy="443.51" r="14.42" fill="#b1f0ef"/><circle cx="95.71" cy="123.76" r="14.42" fill="#92bbff"/><g fill="#fdd499"><circle cx="27.84" cy="313.9" r="22.52"/><circle cx="673.48" cy="311.61" r="21.21"/></g><g fill="#ff8080"><circle cx="102.35" cy="223.1" r="15.78"/><circle cx="543.61" cy="31.85" r="13.53"/></g><circle cx="365.46" cy="60.46" r="20.71" fill="#b1f0ef"/></g><path class="J" d="M60.87 359.87L144 396.44c7.43 3.27 26.26 5.92 42.06 5.92h253.8l84.78 11.93-27.12-11.93h-.06l-96.55-42.46c-7.43-3.27-26.26-5.92-42.06-5.92H76c-15.77.02-22.56 2.62-15.13 5.9z" opacity=".25" fill="url(#A)"/><path d="M184.6 151.22V328a28.6 28.6 0 0 0 28.61 28.61H467l57.66 57.67V151.22A28.6 28.6 0 0 0 496 122.61H213.2a28.61 28.61 0 0 0-28.61 28.61z" fill="#9eecea"/><g clip-path="url(#B)"><g fill="#fff"><path d="M303.84 138.9h101.58v194.54H303.84z"/><path d="M202.3 138.9h101.58v194.54H202.3zm203.07 0h101.58v194.54H405.37z"/></g><path d="M202.3 138.9h101.58v27.12H202.3z" fill="#f1f3f6"/><circle cx="220.58" cy="152.46" r="6.09" fill="#fff"/><path d="M303.84 138.9h101.58v27.12H303.84z" fill="#edf0f4"/><path d="M405.37 138.9h101.58v27.12H405.37z" fill="#f1f3f6"/><g fill="#fff"><circle cx="322.12" cy="152.46" r="6.09"/><circle cx="423.65" cy="152.46" r="6.09"/></g><path d="M252.94 193H214.5v-7.4a7.39 7.39 0 0 1 7.39-7.39h31.05a7.39 7.39 0 0 1 7.39 7.39h0a7.38 7.38 0 0 1-7.38 7.4z" fill="#f1f3f6"/><path d="M242 220h49.7v-7.38a7.39 7.39 0 0 0-7.39-7.39H242a7.39 7.39 0 0 0-7.39 7.39h0A7.37 7.37 0 0 0 242 220z" fill="#f4f6f8"/><use xlink:href="#I" fill="#c1e9c7"/><path d="M252.94 300.85H214.5v-7.4a7.39 7.39 0 0 1 7.39-7.39h31.05a7.39 7.39 0 0 1 7.39 7.39h0a7.38 7.38 0 0 1-7.38 7.39z" fill="#f1f3f6"/><path d="M242 273.88h49.7v-7.38a7.39 7.39 0 0 0-7.39-7.39H242a7.39 7.39 0 0 0-7.39 7.39h0a7.37 7.37 0 0 0 7.39 7.38z" fill="#f4f6f8"/><g fill="#f1f3f6"><path d="M354.47 193H316v-7.4a7.39 7.39 0 0 1 7.39-7.39h31.06a7.39 7.39 0 0 1 7.39 7.39h0a7.39 7.39 0 0 1-7.37 7.4zM456 193h-38.44v-7.4a7.39 7.39 0 0 1 7.39-7.39H456a7.39 7.39 0 0 1 7.39 7.39h0A7.38 7.38 0 0 1 456 193z"/></g><path d="M442,220h49.75v-7.38a7.39,7.39,0,0,0-7.39-7.39H442a7.39,7.39,0,0,0-7.39,7.39h0A7.37,7.37,0,0,0,442,220Z" fill="#f4f6f8"/><path d="M456 246.92h-38.44v-7.4a7.39 7.39 0 0 1 7.39-7.39H456a7.39 7.39 0 0 1 7.39 7.39h0a7.38 7.38 0 0 1-7.39 7.39z" fill="#f1f3f6"/><path d="M342.6 205.18h44.63a6 6 0 0 1 6 6v21a0 0 0 0 1 0 0H342.6a6 6 0 0 1-6-6v-15a6 6 0 0 1 6-6z" fill="#f6f7f9"/></g><path d="M174.28 178.47l42.86-.07a47.31 47.31 0 0 1 47.38 47.24l.06 70.56-9.48-9.45a47.36 47.36 0 0 0-33.47-13.81l-47.23.06a47.3 47.3 0 0 1-47.4-47.22h0a47.3 47.3 0 0 1 47.28-47.31z" fill="#80d2fe"/><g fill="#fff"><path d="M159.15 218.42l73.18-.08a1.51 1.51 0 0 0 0-3l-73.13.1a1.5 1.5 0 0 0-.7 2.83 1.53 1.53 0 0 0 .65.14zm.1 20.42l73.14-.12a1.5 1.5 0 1 0 0-3l-73.14.1a1.5 1.5 0 0 0-.69 2.83 1.46 1.46 0 0 0 .69.18z"/></g><circle cx="153.16" cy="185.59" r="27.39" opacity=".15"/><circle cx="160.81" cy="177.94" r="27.39" fill="#eaf8ec"/><g clip-path="url(#C)"><path d="M139.53 202.22a15.8 15.8 0 0 1 .73-3.4c.48-1 .8-2.43 3.75-2.75s7.88-1.65 9.8-3.08a3.66 3.66 0 0 1 .84-1.64c.55-.43.4-2.33 1-2.47a45.56 45.56 0 0 0 10.18 0s.3-.25.52.6a6.79 6.79 0 0 0 .85 2.09 5.79 5.79 0 0 1 .57 1.4 21.11 21.11 0 0 0 8.11 2.86c4.77.64 4.8 1.25 5.4 2.54a16.87 16.87 0 0 1 .88 3.85L160.8 208z" fill="#7daeff"/><path d="M153.54 201s2.92-2.8 3.37-2.8 1.46.8 1.46.8h4.87s1.1-.83 1.66-.8 3 2.8 3 2.8-2.48-4-3.53-3.84-6.77 0-6.77 0-.5-1.16-4.06 3.84z" opacity=".2"/><path d="M158.06 205.88l.9-4.7a2.64 2.64 0 0 1-.84-2l-1.43-1.78 3.3-1.83a53.12 53.12 0 0 1 5.05 1.89l-1.66 1.8a2 2 0 0 1-.72 1.88l.95 4.76z" fill="#1f2768"/><path d="M155.68 191.75c-.17.4.17.68.3 1.45s1.24 3.9 1.24 3.9l1.7 1.28h4l1.48-1.2 1.76-4.9c.24-.67-.14-.47-.17-1.1v-4.9h-10.3l-.01 5.5z" fill="url(#D)"/><path d="M152.5 183.36s1.38 6.85 7.84 7.8 8.4-7.8 8.4-7.8 1.62.55 1.94-2.76-.4-4.25-1.3-3.46l-.08-8.6-8.63-2.55-8.2 4.33-.27 7.62s-.6-1.57-1.27-.9-.63 6.42 1.54 6.3z" fill="#fde0ce"/><path d="M158.56 169.72s1.05 1.28 2.14 1.15c1.66-.2 1.6-1.66 3.78-1.6s4.14 1.2 4.47 9.32c0 0 2.43-2.08 2.56-3.74s1.38-9.23-2-10-7.16-4.8-12-4.68-5 3.08-6.93 4.8-.5 3.65-.43 5.5.07 4.16.43 4.93a31.53 31.53 0 0 1 1.67 4.17 29.87 29.87 0 0 0 .79-7.24c-.26-2.7 3.96-4.1 5.52-2.63z"/></g><circle cx="180.7" cy="157.75" r="7.81" fill="#68c60e"/><path d="M180.7 167.06a9.31 9.31 0 1 1 9.31-9.31 9.32 9.32 0 0 1-9.31 9.31zm0-15.62a6.31 6.31 0 1 0 6.31 6.31 6.32 6.32 0 0 0-6.31-6.31z" fill="#fff"/><path d="M548.92 230.23l-36.4-.06a40.19 40.19 0 0 0-40.24 40.13v59.92l8.05-8a40.23 40.23 0 0 1 28.43-11.73l40.14.06a40.17 40.17 0 0 0 40.23-40.12h0a40.16 40.16 0 0 0-40.2-40.2z" fill="#fcc980"/><g fill="#fff"><path d="M561.77 264.16l-62.15-.07a1.28 1.28 0 1 1 0-2.55l62.1.1a1.28 1.28 0 0 1 .6 2.41 1.39 1.39 0 0 1-.56.12zm-.07 17.34l-62.12-.1a1.28 1.28 0 0 1 0-2.56l62.12.1a1.27 1.27 0 0 1 .59 2.4 1.41 1.41 0 0 1-.59.16z"/></g><circle cx="573.57" cy="243.02" r="22.19" opacity=".15"/><circle cx="580.1" cy="238.32" r="22.19" fill="#e5f6ff"/><g clip-path="url(#E)"><path d="M570.05 249.37s3.14 1.78 3-1-2.45-3.56-3.6-4.4a8.24 8.24 0 0 1-2.33-7.45c.7-3.5 2.27-5.07 3-8.74s3.43-3.45 4.23-3.45l.15-1 .48 1.18s2.26-3.7 6.34-3.05 5.68 4.68 7.2 5.9a14.52 14.52 0 0 1 4.07 6.77c.3 2-.9 4.35-2.8 7.2s-1.82 3.9.77 7.6a8.5 8.5 0 0 1-4.23-1.27 1.92 1.92 0 0 0 2.22 1.41s-3.2 2.6-9-.1c.01.03-5.74 3.7-9.52.4z" fill="#534741"/><path d="M598.68 259l-.54-3.52c-.2-1.6-1.26-1.7-1.26-1.7-7.14-1.25-10.42-2.46-11.13-2.9s-10.76-.6-12.08.23-9 2.67-10.23 2.6a1.1 1.1 0 0 0-1.28 1l-.64 4.26 18.7 5.4z" fill="#ff8080"/><path d="M574.34 254.88l2.96 9.24 2.92.3 3.33-.97 1.75-9.06-10.96.5z" fill="#f4f4f4"/><path d="M579.86 256.86l-.54 7.56 1.57-.2v-6.72a.52.52 0 0 0-.38-.44 3.51 3.51 0 0 0-.65-.21z" opacity=".2"/><path d="M576.08 247.5a3.07 3.07 0 0 0-1 1.34c-.45 1-.63.65-1.07 1.7s-2.76 7-2.54 8.48c0 0 2.72-2.17 4.14-2.34a24.73 24.73 0 0 1 4.23.17 18.83 18.83 0 0 1 4.22-.21 32.38 32.38 0 0 1 4.34 2.35s.18-3.12-2.67-8.8c0 0-1.65-2.73-2-2.73z" opacity=".2"/><path d="M576.08 247.5a3.07 3.07 0 0 0-1 1.34c-.45 1-.63.65-1.07 1.7s-2.76 7-2.54 8.48c0 0 3.14-3.5 3.86-3.58 1.3-.15 4.5 1.4 4.5 1.4s3.84-1.74 4.82-1.48c.72.18 3.72 3.65 3.72 3.65s.18-3.12-2.67-8.8c0 0-1.65-2.73-2-2.73z" fill="#fff"/><path d="M576 244.62a29.19 29.19 0 0 1 0 5.84c-.34 2.56 3.23 6.13 3.9 6.4 0 0 4.48-3 4-6.4a19.24 19.24 0 0 1 0-5.84z" fill="url(#F)"/><path d="M573.15 242a10.45 10.45 0 0 0 1.22 3.32c.7.8 3.5 4.1 5.06 4.34s5.58-3.72 6-4.63a20.28 20.28 0 0 0 1-3 .66.66 0 0 0 .77-.44c.2-.56 0-2.1.53-2.63l-.48.17s.33-3.84-.4-5.18-4.1-3-4.1-3l.88.9a16.1 16.1 0 0 1-9.45-1.72s1 3.57-2.73 8.22a3.3 3.3 0 0 1 .81 1.86c.01 1.02.22 2 .9 1.78z" fill="#fde0ce"/></g><circle cx="596.85" cy="219.59" r="6.44" fill="#68c60e"/><path d="M596.85 227.52a7.94 7.94 0 1 1 7.94-7.93 7.94 7.94 0 0 1-7.94 7.93zm0-12.87a4.94 4.94 0 1 0 4.94 4.94 4.94 4.94 0 0 0-4.94-4.94z" fill="#fff"/><g fill="#f6f7f9"><path d="M303.34 166.02h1v167.42h-1zm101.56 0h1v167.42h-1z"/></g><path d="M478.1 86l-34.54-.06A38.14 38.14 0 0 0 405.37 124v56.86l7.64-7.6a38.14 38.14 0 0 1 27-11.13l38.08.06a38.12 38.12 0 0 0 38.18-38.07h0A38.12 38.12 0 0 0 478.1 86z" fill="#f99"/><g fill="#fff"><path d="M490.3 118.17l-59-.06a1.22 1.22 0 1 1 0-2.43l58.94.1a1.2 1.2 0 1 1 0 2.4zm-.08 16.46l-58.94-.1a1.21 1.21 0 1 1 0-2.42l59 .1a1.21 1.21 0 0 1 1.2 1.22 1.19 1.19 0 0 1-.65 1.06 1.09 1.09 0 0 1-.61.15z"/></g><circle cx="499.66" cy="92.23" r="23.12" opacity=".15"/><circle cx="506.38" cy="87.75" r="23.12" fill="#fef4e5"/><g clip-path="url(#G)"><path d="M504 96.1s-4.63 3.7-7.86-1.56a14.7 14.7 0 0 1-1.45-11s3.6-14.9 14.9-10.5a4.84 4.84 0 0 1 4.53 1.58c1.86 2.18 5.53 5.78 4.5 13.3s-4.2 11-9.4 8.5z" fill="#534741"/><path d="M502 93.36s.47 5.24-.36 7l4.62 4.38 4.6-3.73s-.7-1.7-.14-7.54z" fill="url(#H)"/><g fill="#fde0ce"><path d="M513.92 88.32c0 4.1-4.75 9.37-7.4 9.37-2.9 0-7.4-5.27-7.4-9.37s-2-11.43 7.4-11.43c8.33 0 7.4 7.34 7.4 11.43z"/><path d="M513.44 85.45s2.08-.72 2 2.14-2.44 2.2-2.44 2.2z"/></g><path d="M523.7 111.7l-3.5-6.93a1.11 1.11 0 0 0-1-.6h0c-1.32 0-6.78-.08-8.65-5.1 0 0 .25 2.66-4.3 2.6s-4.24-2.6-4.24-2.6c-1.75 4.8-7.5 5.1-8.8 5.1h0a1.15 1.15 0 0 0-1 .66l-3.46 6.87 18.34 5.47z" fill="#80d2fe"/><path d="M508.2 75c11.32 0 5.77 9.7 5.77 9.7.18-3.94-2.62-5.15-2.62-5.15s-.67 3.58-6.6 5.3-7.27 4.14-7.27 4.14-1.3-10.5 6-12.56z" fill="#534741"/></g><circle cx="523.47" cy="70.66" r="5.75" fill="#68c60e"/><path d="M523.47 77.9a7.26 7.26 0 1 1 7.26-7.25 7.26 7.26 0 0 1-7.26 7.25zm0-11.5a4.26 4.26 0 1 0 4.26 4.26 4.25 4.25 0 0 0-4.26-4.26z" fill="#fff"/></g></g></svg>