<svg xmlns="http://www.w3.org/2000/svg" xmlns:xlink="http://www.w3.org/1999/xlink" viewBox="0 0 960 660" xmlns:v="https://vecta.io/nano"><style><![CDATA[.B{isolation:isolate}.P,.b{mix-blend-mode:multiply}.AM{fill:#ff8080}.AN{opacity:.1}.AO{fill:none}.AP{fill:#053454}.AQ{stroke-miterlimit:10}.AR{fill-rule:evenodd}.AS{fill:#fcc}.AT{stroke-linecap:round}.AU{fill:#84d48f}.AV{fill:#80d2fe}.AW{fill:#9eecea}.AX{fill:#92bbff}.AY{fill:#ccedff}.AZ{stroke:#31b744}.Aa{fill:#c1e9c7}.Ab{fill:#ffc9b1}.Ac{fill:#66c9fe}]]></style><defs><linearGradient id="A" x1="621.13" y1="80.95" x2="622.13" y2="80.95" gradientUnits="userSpaceOnUse"><stop offset=".06" stop-color="#1a1a1a"/><stop offset="1" stop-color="#3d3d3d"/></linearGradient><linearGradient id="B" x1="631.99" x2="632.99" xlink:href="#A"/><linearGradient id="C" x1="627.91" y1="81.18" x2="636.51" y2="81.18" xlink:href="#A"/><linearGradient id="D" x1="642.85" x2="643.85" xlink:href="#A"/><clipPath id="E"><path d="M630.78 76l-4.6-4.6 2.1-2.1 2.5 2.5 5.56-5.58 1.24 1.25-6.8 6.84-2.92-2.93.35-.35.07-.06 2.5 2.5 6-6-.4-.42-5.56 5.6-2.5-2.5-1.3 1.26 3.75 3.78 7.25-7.27.06.07.35.35z" class="AO"/></clipPath></defs><g class="B"><g><path d="M222.55 105h544.73v286.5H222.55z" fill="#fafbfc"/><g opacity=".2"><g fill="#98dba1"><circle cx="160.29" cy="85.49" r="23.08"/><circle cx="690.57" cy="556.14" r="15.49"/></g><circle cx="366.84" cy="439.37" r="32.3" class="AV"/><g class="AX"><circle cx="887.09" cy="256.94" r="21.43"/><circle cx="868.37" cy="486.64" r="19.59"/></g><circle cx="137.21" cy="256.25" r="14.42" fill="#b1f0ef"/><circle cx="74.58" cy="180.95" r="14.42" class="AM"/><g fill="#fdd499"><circle cx="66.09" cy="320.04" r="22.52"/><circle cx="833.52" cy="381.97" r="21.21"/></g><circle cx="143.6" cy="416.66" r="15.78" class="AX"/><circle cx="686.01" cy="37.71" r="13.53" class="AM"/><circle cx="350.15" cy="64.34" r="20.71" fill="#b1f0ef"/></g><g fill="#d8f8f7"><path d="M556 470.43H422.72s4.17 0 8.66-11.86l10.85-30h94.32l11 30c4.68 11.06 8.45 11.86 8.45 11.86z"/><path d="M556 470.14H422.72s4.17 0 8.66-11.78l10.85-29.8h94.32l11 29.8c4.68 10.98 8.45 11.78 8.45 11.78zM759 94H229.74a18 18 0 0 0-18 18v298.44a18 18 0 0 0 18 18H759a18 18 0 0 0 18-18V112a18 18 0 0 0-18-18zm.1 288H229.64V113.56h529.5z"/></g><g fill="#c5f4f3"><path d="M570.12,479.93H408.66a4.84,4.84,0,1,1,0-9.67H570.12a4.84,4.84,0,0,1,0,9.67Z"/><circle cx="489.39" cy="405.1" r="11.67"/><path d="M536.55 428.55h-94.32l-6.18 17.08h106.7l-6.2-17.08z"/></g><path d="M295.07 378.8c7.15-3.33 108.28-100.92 108.28-100.92L513.68 378.8" fill="#d4e4ff"/><path d="M403.35 277.87S302.22 375.45 295.07 378.8h108.28V277.87z" fill="#bed6ff"/><g fill="#a8c9ff"><path d="M424.18 296.92l-20.83-19.05v19.24l.07-.06 7.36 8.44 2.46-9.67 12.6 11.98-1.67-10.88zm-41.33.64l-.43 8.07 8.6-7.4-4 14.92 16.28-16v-19.28l-20.46 19.7z"/></g><path d="M456,192.65h39.56a2.58,2.58,0,0,0,2.58-2.57v-31H456L470.2,176Z" class="AM"/><path class="P" d="M477.7 159.06h20.44a0 0 0 0 1 0 0v30.26a0 0 0 0 1 0 0h-17.86a2.58 2.58 0 0 1-2.58-2.58v-27.68a0 0 0 0 1 0 0z" opacity=".3"/><path d="M483.36 152.76h39.56a0 0 0 0 1 0 0v33.6a0 0 0 0 1 0 0h-39.56a2.58 2.58 0 0 1-2.58-2.58v-28.44a2.58 2.58 0 0 1 2.58-2.58z" class="AM"/><path d="M521.98 148.2h2v84.8h-2z"/><circle cx="522.9" cy="148.29" r="3.11"/><path d="M400.23 378.8c8.13-5.24 123.06-158.7 123.06-158.7l125.38 158.7" class="AY"/><path d="M523.3 220.1S408.36 373.55 400.23 378.8H523.3V220.1z" fill="#b2e4fe"/><g fill="#99dbfe"><path d="M546.96 250.06L523.3 220.1v30.26l.08-.1 8.36 13.28 2.8-15.2 14.34 18.84-1.9-17.1z"/><path d="M500 251.07l-.5 12.7 9.8-11.63-4.5 23.45 18.5-25.22V220.1L500 251.07zm-207.5 17.05s-.62-11.74 12.23-11.28c-1.23-5 8.73-13.65 19.4-5.27 2.17-7.15 18-6.47 20.25 3.5 0-.5 17.93-6.6 18.6 13.06zm266.67 46.3s-.95-17.88 18.62-17.2c-1.87-7.68 13.3-20.77 29.53-8 3.3-10.9 27.4-9.85 30.83 5.3 0-.75 27.3-10 28.3 19.9z"/></g><g fill="#ade2b4"><path d="M682 381.78H273a44.15 44.15 0 0 0 18.68-7.52c6.58-4.77 3.36-9.12 11.55-9.12h346.92c18.18 0 31.85 16.64 31.85 16.64z"/><path d="M358.3 342.1c-27.78.23-54.3 24-54.3 24l62.7-.1v-23.78c-2.7-.1-5.47-.14-8.4-.12z"/><path d="M366.7 342.22V366l66.4-.1c-13.66-7.8-26.77-22.2-66.4-23.7z"/><path d="M450.23 349.94c-21.4.15-41.8 15.94-41.8 15.94l48.25-.06V350q-3.07-.08-6.45-.06z"/><path d="M456.68,350v15.8l51.13-.06C497.3,360.57,487.2,351,456.68,350Z"/><path d="M538.8 335.87c-31.3 3.28-59.78 33.8-59.78 33.8l68.86-.12v-34.1a60.12 60.12 0 0 0-9.08.43z"/><path d="M547.88 335.44v34.1l73-.12c-15.05-11.22-29.45-31.87-73-34z"/><path d="M612.1 348.07c-20.12 2.1-38.42 21.72-38.42 21.72l44.25-.08v-21.93a37.63 37.63 0 0 0-5.83.29z"/><path d="M617.93 347.78v21.93l46.9-.08c-9.64-7.2-18.9-20.48-46.9-21.85z"/></g><path d="M420.96 347.18v11.2" class="AO AQ AT AZ"/><path d="M423.8 337.17c.4 8.05 1.08 16.4-2.8 16.46v-27c1.27.1 2.5 4.27 2.8 10.54z" class="AU"/><path d="M418.12 337.17c.3-6.34 1.55-10.55 2.84-10.54h0v27c-3.58 0-3.23-8.38-2.84-16.46z" class="Aa"/><path d="M430.22 352.43v6.86" class="AO AQ AT AZ"/><path d="M433.05 346.3c.4 4.93 1.1 10.05-2.8 10.08v-16.52c1.27.06 2.5 2.6 2.8 6.44z" class="AU"/><path d="M427.38 346.3c.3-3.88 1.55-6.45 2.83-6.44h0v16.52c-3.58 0-3.2-5.13-2.83-10.08z" class="Aa"/><path d="M496 349.3v6.46" class="AO AQ AT AZ"/><path d="M498.84 343.52c.4 4.64 1.1 9.45-2.8 9.5v-15.56c1.27.06 2.5 2.45 2.8 6.07z" class="AU"/><path d="M493.17 343.52c.3-3.66 1.55-6.08 2.83-6.08h0V353c-3.58 0-3.22-4.82-2.83-9.48z" class="Aa"/><g class="B"><g class="B"><g><path d="M515.6,369.64v3.72a.2.2,0,0,1,0,.07v-3.72a.17.17,0,0,0,0-.07" fill="#58595b"/></g></g><path d="M625 529.94c42-31.88 65.83-53.72 70.64-60.16 3.84-5.13 20.6-30.63-28.86-52.4s-174.16-24.55-181.86-30.54 58.9-12.14 63.62-16.22c5.1-4.4-68.12-6-72.14-7-5.57-1.28 11-2.58 20.63-3.1s14.13-1 13.82-1.9-11.34-1.55-16.94-1.55a9.93 9.93 0 0 0-2.86.2c-.73.63 21.38.48-7.2 2.27s-37.66 3-31.24 4.57 53.4 2.6 61.27 4.46c7.47 1.75-22.8 4.4-36.45 6.06-19.66 2.4-37.46 5-44.35 9.8-.9.64-15.6 10.82 47.88 18.3 85.48 10.07 99 24.34 101.7 30.56 2 10.1 7.6 18.55-121.73 77.2l-203.75 93.78h264.1L625 529.94z" class="AP"/></g><g fill="#1e4865"><path d="M547.2 370z"/><path d="M525.15 599.88l21.24-14 21.13-14.5 40.76-30.2 20.37-15.27q5.07-3.86 10.1-7.8l10-7.94q10-7.92 19.8-16.06c6.54-5.45 13-10.88 19.4-16.77a44.26 44.26 0 0 0 4.74-5.05 37.29 37.29 0 0 0 3.9-6 28.33 28.33 0 0 0 3.5-14.21 21 21 0 0 0-.51-3.85 20.72 20.72 0 0 0-1.21-3.64 35.21 35.21 0 0 0-3.42-6.24 46.89 46.89 0 0 0-9.51-9.9c-7.08-5.57-15-9.47-23-12.7a186.18 186.18 0 0 0-24.63-7.7c-8.34-2-16.7-3.57-25.08-5s-16.77-2.66-25.18-3.8c-16.8-2.28-33.7-4-50.57-5.43l-25.26-2.3-12.58-1.4a103.66 103.66 0 0 1-12.35-2.1 16.06 16.06 0 0 1-2.79-1 3.08 3.08 0 0 1-.92-.64 1.74 1.74 0 0 1-.23-.4 1 1 0 0 1-.07-.36c0-.42.66-1.12 1.47-1.6a16 16 0 0 1 2.71-1.26 85.48 85.48 0 0 1 12.15-3.11c8.3-1.6 16.66-2.85 25-4.22l6.26-1.05q3.14-.5 6.26-1.07c2.1-.38 4.17-.8 6.23-1.27 1-.25 2.07-.5 3.1-.85a5.59 5.59 0 0 0 1.52-.7.68.68 0 0 0 .33-.55.69.69 0 0 0-.4-.53 4.3 4.3 0 0 0-.76-.34 32 32 0 0 0-6.29-1.15l-6.32-.65c-4.22-.36-8.44-.63-12.67-.87q-12.66-.8-25.34-1.36l-12.68-.67c-2.1-.14-4.22-.22-6.32-.5a11.37 11.37 0 0 1-1.54-.32 1.17 1.17 0 0 1-.66-.37c-.08-.24.25-.4.46-.5a14.48 14.48 0 0 1 3.07-.74c4.18-.64 8.4-1 12.62-1.28l12.67-.76a37 37 0 0 0 6.3-.7 1.13 1.13 0 0 0 .67-.38c.07-.14-.1-.24-.2-.3a2.35 2.35 0 0 0-.37-.14 13.33 13.33 0 0 0-1.55-.33c-1.05-.16-2.1-.27-3.15-.36-4.2-.45-8.44-.6-12.67-.63 4.23 0 8.46.18 12.67.63 1.05.1 2.1.2 3.15.37a10.44 10.44 0 0 1 1.55.33 2.35 2.35 0 0 1 .37.14c.1.06.26.15.2.3a1.23 1.23 0 0 1-.68.37 36.93 36.93 0 0 1-6.29.7c-4.23.14-8.45.45-12.67.74s-8.44.63-12.63 1.26a14.94 14.94 0 0 0-3.09.73 1.48 1.48 0 0 0-.34.21.33.33 0 0 0-.14.38 1.19 1.19 0 0 0 .69.4 10.44 10.44 0 0 0 1.56.39c2.1.3 4.22.4 6.33.53l12.67.74q12.67.7 25.33 1.5c4.23.24 8.44.63 12.65 1q3.15.32 6.3.7a31.84 31.84 0 0 1 6.15 1.16 4.72 4.72 0 0 1 .68.32l.08.06s0-.05 0 0 0 0 0 0l-.08.07a5.87 5.87 0 0 1-1.36.6c-1 .32-2 .57-3 .8-2.06.48-4.13.87-6.2 1.24-4.16.75-8.34 1.38-12.53 1.95l-25.14 3.6a84.73 84.73 0 0 0-12.51 2.8 17.07 17.07 0 0 0-3.07 1.33 6.7 6.7 0 0 0-1.48 1.09 3.26 3.26 0 0 0-1 2 2.87 2.87 0 0 0 .15 1.21 3.49 3.49 0 0 0 .52 1 5 5 0 0 0 1.59 1.24 18.1 18.1 0 0 0 3.16 1.21 107.78 107.78 0 0 0 12.6 2.47l12.6 1.7 25.23 2.92c16.82 1.86 33.57 3.94 50.24 6.6q12.5 2 24.92 4.36c8.26 1.6 16.5 3.37 24.58 5.5a178 178 0 0 1 23.58 8.06c7.57 3.26 14.88 7.17 21 12.25a39.73 39.73 0 0 1 7.81 8.53 27.11 27.11 0 0 1 2.53 4.94 11.32 11.32 0 0 1 .73 2.39 12.41 12.41 0 0 1 .24 2.45 20.34 20.34 0 0 1-2.9 10 28.8 28.8 0 0 1-3.19 4.54 44.47 44.47 0 0 1-4 4.09c-6.1 5.53-12.66 10.9-19.18 16.22l-19.8 15.72-5 3.86-5.23 3.73q-5.1 3.7-10.28 7.32-10.35 7.24-20.84 14.37l-42 28.62c-6.8 4.75-13.78 9.44-20.83 14.06l-21.22 13.8q-12.18 7.83-24.4 15.6h24.94zM470.57 360.6l7.35-.52zM451 363.35v-.01.01zm64.66 5.75s0 .03 0 0z"/><path d="M377.6 564l86.76-41.33C478.87 516 493.6 509.38 508 502l21.4-11.14 10.67-5.65 10.65-5.76c7.1-3.88 14.13-7.88 21-12.3 3.43-2.2 6.87-4.62 10.17-7.15a56.63 56.63 0 0 0 9.43-8.94 21.9 21.9 0 0 0 3.7-6.5 17.21 17.21 0 0 0 .78-7.92 21.61 21.61 0 0 0-.34-1.85 12 12 0 0 0-.59-2l-.38-1-.4-.85a15.3 15.3 0 0 0-.91-1.64 23.79 23.79 0 0 0-4.66-5.45 41.56 41.56 0 0 0-11.32-6.69 90 90 0 0 0-11.84-3.89c-4-1.05-7.92-1.88-11.8-2.77s-8-1.63-12-2.28l-11.94-1.82-11.92-1.7c-15.9-2.36-31.92-3.8-47.73-6-4-.6-7.9-1.28-11.8-2-2-.37-3.93-.75-5.84-1.2s-3.85-1-5.74-1.53a68.31 68.31 0 0 1-5.62-1.84 25 25 0 0 1-5.14-2.51 4.42 4.42 0 0 1-1.6-1.66.87.87 0 0 1 0-.67 2.3 2.3 0 0 1 .55-.8 15.22 15.22 0 0 1 4.8-2.65 87.38 87.38 0 0 1 11.44-3.13q5.84-1.3 11.74-2.3c7.86-1.37 15.83-2.25 23.77-3.36l11.92-1.6 6-.8c2-.3 4-.7 5.94-1 1-.18 2-.36 3-.62a13.3 13.3 0 0 0 1.48-.46 4.61 4.61 0 0 0 1.47-.81.89.89 0 0 0 .29-.63.94.94 0 0 0-.26-.61 2.18 2.18 0 0 0-.81-.5 10 10 0 0 0-1.53-.37c-1-.17-2-.25-3-.35-4-.34-8-.6-12-.76l-24-1-12-.56q-3-.18-6-.45c-1-.08-2-.2-3-.37-.5-.08-1-.17-1.47-.3a3.62 3.62 0 0 1-1.36-.5h0c-.1-.1 0-.22.1-.3a1.43 1.43 0 0 1 .37-.19 6.94 6.94 0 0 1 .81-.25c.55-.14 1.1-.24 1.68-.34 1.12-.18 2.26-.33 3.4-.46 2.27-.26 4.55-.46 6.83-.65l6.33-.5-6.33.5-6.84.6c-1.14.12-2.27.26-3.4.44-.57.1-1.13.2-1.7.33a6.09 6.09 0 0 0-.83.25 1.6 1.6 0 0 0-.39.2.3.3 0 0 0-.11.42 1.44 1.44 0 0 0 .69.36c.24.08.48.14.72.2.5.12 1 .2 1.48.3 1 .16 2 .3 3 .38q3 .27 6 .48l12 .64 24 1.36c4 .22 8 .55 12 1 1 .1 2 .2 2.95.4a8.19 8.19 0 0 1 1.38.36 1.26 1.26 0 0 1 .46.27h0a3.86 3.86 0 0 1-1.17.58c-.45.16-.9.28-1.4.4a43.77 43.77 0 0 1-2.92.53l-5.93.88-6 .7-11.95 1.35c-8 .92-15.94 1.7-23.9 3q-6 .93-11.88 2.17a92.28 92.28 0 0 0-11.75 3.13 28.78 28.78 0 0 0-2.89 1.23 11.13 11.13 0 0 0-2.76 1.89 4.55 4.55 0 0 0-1.1 1.68 3.28 3.28 0 0 0 .07 2.27 6.48 6.48 0 0 0 2.42 2.69 27 27 0 0 0 5.63 2.78c1.92.73 3.85 1.35 5.8 1.92s3.87 1.08 5.87 1.54 4 .8 5.95 1.15q5.94 1 11.9 1.95c15.94 2.12 31.86 3.83 47.6 6.67l11.8 2.23a380.4 380.4 0 0 1 11.71 2.52c3.88.9 7.7 1.94 11.46 3.1l11.37 3.63a85.42 85.42 0 0 1 10.69 4.45 35.57 35.57 0 0 1 8.88 6.16 15.66 15.66 0 0 1 2.91 3.83 10.58 10.58 0 0 1 .49 1l.2.5.14.46a3 3 0 0 1 .2.92c0 .4.1.76.12 1.12a8.43 8.43 0 0 1-.64 3.91 15.41 15.41 0 0 1-2.45 3.76 63.34 63.34 0 0 1-8.1 7.45c-3 2.44-6.1 4.66-9.36 6.87-6.52 4.35-13.3 8.47-20.2 12.44-3.45 2-6.94 3.9-10.44 5.8s-7 3.7-10.6 5.54Q514.74 488.77 504 494c-14.3 7-29 13.23-43.68 19.67l-43.87 19.92-43.73 20-87.18 40.83-20.6 9.88h29.8Q336 583.74 377.6 564z"/></g><path d="M531.42 369.27c0-.53-1.6-.7-2-.75-1.58-.2-4.33-.6-16.46-1.56" stroke="#80d2fe" stroke-width=".5" stroke-dasharray="6 5" class="AO AQ"/><g class="AV"><path d="M510.32 366.92l-4-.3v-.25l4 .3zm-7-.5l-4-.25v-.25l4 .25zm-7-.42l-3.66-.18h-.34v-.25h.34l3.66.18zm-7-.35l-4-.2v-.25l4 .2zm-7-.37l-4-.25v-.25l4 .25zm-.32-4.65h0c.12 0 .85 0 2-.12h0l-2 .12zm3-.18h0l2-.14zm3-.2h0l2-.15zm3-.22h0l2-.15zm3-.23h0l.87-.06h.3l.83-.06-.83.06h-.3zm3-.22h0l2-.12zm3-.16h0l1.35-.07h.65-.66zm3-.15h0c.85 0 1.48-.08 2-.12h0l-2.08.12zm3-.2h0c.67-.07 1-.15 1-.24a0 0 0 0 0 0 0h0s-.15.2-1.08.24zm.94-.3s-.22-.24-1.9-.52h0c1.7.28 1.9.5 1.92.52zm-2.9-.67l-2-.2 2 .2zm-3-.3l-2-.13 2 .13zm-3-.2l-2-.1 2 .1zm-3-.13h-.15.15zm-33.27 27.73a21.92 21.92 0 0 1 5.87-2.38l.47.45c-3.63 1.22-5.57 2.13-5.5 2.26zm8.8-3.3l5.4-1.53.8.38-5.33 1.5zm9-2.36l5.56-1.17.56.4-5.53 1.16zm9.07-1.82l5.64-1 .53.4-5.63 1zm9.18-1.5l5.7-.82.5.4-5.67.8zm9.26-1.3l2.76-.35 2.9-.47.53.4-2.92.48-2.78.35zm9.18-1.4l5.6-1 .57.4-5.63 1zm9.2-1.8a23.8 23.8 0 0 0 5.23-1.69l.68.2a23.83 23.83 0 0 1-5.5 1.84zM474 364.54l.05-.12 1.45.14v.1zm-2.86-.32v-.1l1.47.16-.05.12zm-2.86-.38l.06-.1 1.44.2v.08zm-2.76-.55l.06-.07c.32.1.8.18 1.4.3l-.07.1a13.41 13.41 0 0 1-1.36-.32zm-.33-.75c.2-.06.5-.1.82-.17l.66-.1v.06l-.65.12a6.29 6.29 0 0 0-.71.17zm2.88-.5l1.43-.2v.05l-1.42.23zm2.85-.4l1.43-.18v.05l-1.42.18zm2.87-.35l1.43-.15v.05l-1.43.15zm2.87-.3l1.44-.12v.05l-1.44.12zm2.88-.23l1.45-.1v.05l-1.45.1zm162.1 98.64c2.32-3.3 3.5-6.17 3.56-9.33 0-3.46-.57-5.13-3.23-8.44l-4.1 1.06c2.4 3 2.65 4.63 2.54 7.42-.1 2.45-1.4 4.6-3.5 7.58zm-7.8-24.9l4.4-.72a139.28 139.28 0 0 0-13.77-7.64l-3.64.68a124.41 124.41 0 0 1 13 7.68zm-32.4-17.36l2.47-.78a97.72 97.72 0 0 1 10.16 3.91l-3 .74a70.06 70.06 0 0 0-9.63-3.87zm-20.14-5.73l2.1-1c3.62.87 7.27 1.8 10.54 2.72l-2.1 1-10.54-2.72zm-20.77-4.4l1.72-.86 10.68 2.1-1.77.85-10.63-2.1zm-21.9-3.62l2-.78 10.83 1.67-2 .78-10.83-1.66zm-21.4-2.9l1.6-.7 10.93 1.33-1.63.7-10.9-1.32zM503.2 399l-8-.82 1.7-.73 7.24.76 3.74.36-1.66.74zm-29.84-4.54l2-.48c3 .73 6.57 1.42 10.6 2.06l-1.83.5c-4.1-.6-7.7-1.3-10.76-2.05zm-12.15-7a.86.86 0 0 1 0-.16h1.18v.12c0 1 1 2.1 2.78 3.1l-1 .78c-2.04-1.15-2.97-2.46-2.96-3.82zm-21.2 204l-5.15-2.2-25.28 15h8.93l21.5-12.8zm21.63-13.2l26.88-16.6-5.22-2.16-26.86 16.6zm48.27-29.98l26.66-16.8-5.26-2.13-26.64 16.77zm47.93-30.3l26.5-16.9-5.27-2.1-26.5 16.9zm46.62-29c9.6-5.86 18.7-12 26.3-19.08-1.93-.9-4.2-.47-6.07-1.4-7.67 6.9-16.67 12.84-26.3 18.5 1.85 1.17 4.13.84 6.07 2z"/></g><path class="b AN" d="M173.6 628.45l96.9 1.62-14.44-10.3c-3.78-3.67-37.7-6.83-72.55-6.74-18.83.06-36.78.88-50.55 2.33s-21.7 3.35-22.34 5.35c-1.18 3.7 28.26 7.3 63 7.75zm-22.06-4.93c-14.77-1.58-13.92-4.22 1.88-5.88s40.67-1.73 55.44-.15 13.92 4.22-1.88 5.9-40.68 1.73-55.44.14z"/><path d="M319.87 451.05a69.88 69.88 0 0 0-98.81 0c-24.42 24.42-27.46 70.36-6.57 98.2l56 80.84 55.9-80.73c20.94-27.95 17.9-73.9-6.52-98.3zm-48.76 87.6A38.85 38.85 0 1 1 310 499.81a38.9 38.9 0 0 1-38.89 38.85z" class="AM"/><path class="b AN" d="M402.6 400.74l22.8.38-3.4-2.43c-.9-.86-8.87-1.6-17.06-1.58a118.94 118.94 0 0 0-11.89.55c-3.24.34-5.1.78-5.26 1.25-.28.87 6.65 1.73 14.82 1.83zm-5.2-1.16c-3.47-.37-3.28-1 .44-1.4a74.76 74.76 0 0 1 13 0c3.47.37 3.28 1-.44 1.38a74.78 74.78 0 0 1-13 .01z"/><path d="M433.22 372.38a11.24 11.24 0 0 0-15.89 0c-3.92 3.93-4.4 11.3-1.05 15.8l9 13 9-13c3.35-4.48 2.86-11.86-1.06-15.8zm-7.84 14.1a6.25 6.25 0 1 1 6.24-6.25 6.26 6.26 0 0 1-6.24 6.25z" class="AM"/><path class="b AN" d="M648.58,117.56Z"/><g class="AR"><path d="M614.36 92.08l10.42 2.2h11.13l13.47-2.2.42-1.35-4.18-26.84h-27.28l-4.2 26.92.22 1.27z" class="AP"/><path d="M624.7 38.84c.58-2 2.1-4.63 1.36-8a253.11 253.11 0 0 0 10.31 0c-.68 3 .32 5.9.6 8.15 1.87 14.57-14.58 7.68-12.28-.15z" fill="#f2b79e"/></g><path d="M614.16 78.6h35.1a.1.1 0 0 1 .1.1v3.4a.77.77 0 0 1-.77.77h-33.76a.77.77 0 0 1-.77-.77v-3.4a.1.1 0 0 1 .1-.09z"/><g class="AO AQ AT"><path d="M621.63 78.7v4.53" stroke="url(#A)"/><path d="M632.5 78.7v4.53" stroke="url(#B)"/></g><rect x="627.91" y="78.78" width="8.6" height="4.8" rx=".61" fill="url(#C)"/><path d="M643.35 78.7v4.53" stroke="url(#D)" class="AO AQ AT"/><g class="AR"><path d="M636.45 80.37l10.85-.08a1.87 1.87 0 0 0 2-2.06l-2.35-11.7-1.14-4.1 1.44-15.6c.4-3.34 3.77-2.8 5-4.65-1.2-3.22-11.42-4-13.18-4.8a13.07 13.07 0 0 1-1.83-.89c-2.68 4-4.1 4.44-6 4.47a7.16 7.16 0 0 1-6.33-4.34c-13.32 2.4-13 4.05-14.44 5.18 0 .1 2.78-.18 4.08 3.45a16.52 16.52 0 0 1 1 5.27l.6 16.28-2 11.5a1.86 1.86 0 0 0 2 2.17h11.6z" class="AV"/><path d="M626.7 41a6.25 6.25 0 0 0 4.4 1.77 10.68 10.68 0 0 0 5.13-2.05l-1-1.48a7.39 7.39 0 0 1-4.2 1.73c-1.87.06-2.6-.63-3.8-1.6z" class="AY"/><g class="AM"><path d="M626.67 45.7l2 34.54-12.43-.43-.53-22.87s2.35-9.26-4.52-15.88c0 0 1.43-1.6 5.24-2.7 2.63-.77 7.56-1.6 7.56-1.6zm8.53-.2l-2 34.55 11.17-.2 2.06-23.4s-2.8-9.42 4.06-16a26.85 26.85 0 0 0-5.74-2.28l-6.87-1.54z"/></g><g fill="#ff4c4c"><path d="M625.78 35.67a2.91 2.91 0 0 0-2 .76 3.85 3.85 0 0 0-.24 3.77l3.1 5.5 1.37-2.86a3.37 3.37 0 0 0-.65-3.82l-.4-.4c-1.58-1.63-1.18-2.96-1.18-2.96zm10.6 0a2.91 2.91 0 0 1 2 .76 3.85 3.85 0 0 1 .24 3.77l-3.1 5.5-1.32-3.52a3.06 3.06 0 0 1 .69-3.24l.3-.3c1.58-1.63 1.18-2.96 1.18-2.96z"/></g><path d="M636.36 30.86a253.11 253.11 0 0 1-10.31 0 9.13 9.13 0 0 1-.14 4.35c1.14 1.92 3.28 3.77 5.25 3.77s4.1-1.9 5.16-3.65a12 12 0 0 1 .04-4.47z" fill="#ed9e7c"/><path d="M628.83 131l-9.23 1 .73 7.32a7.21 7.21 0 0 0 1 3.16c.9 1.45 2.4 3.5 5.2 3.22 2.24-.23 3.5-3.15 3.57-6.27a6.77 6.77 0 0 0-.11-1.35z" class="AP"/><path d="M627.4 131.17l-6 .5-.3 4.36c-.1 1.25 1.57 2.2 3.1 2l1.25-.08c1.67-.2 3.66-1.83 3-3.06z" class="Ab"/></g><path d="M620.8 133.6s1.05 3.4 4.23 3.24c2.75-.15 2.86-2.08 3.28-3.67l1 3.34s-2.45 4.1-3.36 4.14-5.35-2.1-5.36-2.55.2-4.5.2-4.5z" class="AP"/><g class="AR"><g fill="#1a1a1a"><path d="M624.7 94.27h2.63l-2.96-6.56.33 6.56zm11.76 0h-1.86l1.8-6.42.06 6.42z"/></g><g class="AP"><path d="M624.44 88.75s.37 12.2 1.58 21.18c1.38 10.18 3.74 21.4 3.74 21.4a19.14 19.14 0 0 1-5.5 2 8.16 8.16 0 0 1-6-.54l-4-19.05c-1.63-7.1-4.65-23.6-4.65-23.6-2.2-12.2 14.26-15.85 14.83-1.4zm9.28 43.45l9.26.63-.47 8.4c-.64 2.6-2.66 5.32-5.4 5.15s-4.37-2.82-4.38-6.44z"/></g><path d="M635.16 132.3l6 .25.48 4.34c.16 1.25-1.47 2.26-3 2.15h-1.24c-1.68-.12-3.74-1.67-3.1-2.93z" class="Ab"/></g><g class="AP"><path d="M641.84 134.45a4 4 0 0 1-4.05 3 3.57 3.57 0 0 1-3.47-3.08l-.86 3.38s2.6 4 3.52 4 5.26-2.32 5.25-2.77-.4-4.53-.4-4.53z"/><g class="AR"><path d="M636.3 89.8s.2 12-.28 19.86a195 195 0 0 1-3.21 22.9s1.2 1.4 5.37 1.86 6.2-.9 6.2-.9a212.61 212.61 0 0 0 4.63-21.95c1.18-9 2.18-21 2.18-21 1.7-12.3-14.92-15.23-14.88-.76z"/></g></g><g class="AV AR"><path d="M646 55.24l3.78 11.2a27.19 27.19 0 0 1-8.47 6.62l.9 6.64 8.48-3.6a40.45 40.45 0 0 0 5.67-4.8h0a7.14 7.14 0 0 0 2.29-4.93 33.78 33.78 0 0 0-.62-6.55c-1.4-6.4-1.57-6.7-4.6-15.1-1.4-3.9-3.07-4.9-5.7-4.66-3.75.77-4.75 7.72-1.75 15.16zm-29.8.26l-3.78 11.2s3 7.3 8.33 9.92l-1.4 5.36-8.17-5.4c-1.4-.93-3.66-3.5-5.35-5h0a7.19 7.19 0 0 1-2.28-4.93 33.68 33.68 0 0 1 .62-6.55c1.4-6.4 1.57-6.72 4.6-15.1 1.4-3.88 3.45-5 5.7-4.65 2.84.6 4.12 4.66 3.3 9.8a24.44 24.44 0 0 1-1.57 5.35z"/></g><path d="M650.45 82.5H612.6l-2.72-22.16a1.18 1.18 0 0 1 1.17-1.33H652a1.19 1.19 0 0 1 1.17 1.36z" fill="#e4e4e4"/><path d="M612.6 82.5h37.84a0 0 0 0 1 0 0v1.3a.68.68 0 0 1-.68.68H613.3a.68.68 0 0 1-.68-.68v-1.3a0 0 0 0 1 0 0z" fill="#b3b3b3"/><g clip-path="url(#E)"><path d="M626 69.12h2.28v4.47H626z" fill="#da514b"/><path d="M628.28 69.12h2.5v7.23h-2.5z" fill="#f79421"/><path d="M630.78 68.03h2.5v8.32h-2.5z" fill="#169067"/><path d="M633.28 65.6h5.25v9.7h-5.25z" fill="#3376b7"/></g><path d="M639.65 22.85s1.64-5.34-1.24-6.2c0 0 .4-4.75-7.5-4.35-6.44.32-9.6 4-8.44 11.07 0 0-3.63-.47-.36 6.07.3.58 1 1.5 1.56 1.38h0c1.37 4 4.1 6.66 7.24 6.66s5.87-2.7 7.25-6.66h0a2.26 2.26 0 0 0 1.43-1.38c.98-2.12 2.93-5.84.05-6.58z" class="Ab"/><g fill="#42210b"><path d="M637.28 17.28c.6.67 1.76 4.7 1.56 9.1 1.87-6.46 2.93-11.17-.53-14.28-.76-1.16.1-1.75-1.08-5.7-1.08 2.15-3.34 1.87-4.43 2.48l.3-.77a10 10 0 0 1-4.1 1.37c-2.4.37-4.2 1.38-4.46 2.14C620 13.13 621.8 20 623 25.4a17.92 17.92 0 0 1 2.08-8.49c.35-.32.74-.52 1-.38 4.33 1.92 10.68.15 11.2.74z" class="AR"/><path d="M627.4 35.66a2.09 2.09 0 0 0 1 1.79 5.13 5.13 0 0 0 3.12.73 4.23 4.23 0 0 0 2.34-.75 2.08 2.08 0 0 0 .91-1.78 31.44 31.44 0 0 1-.09-3.27 3.36 3.36 0 0 0-.49-2.16 5 5 0 0 0-1.6-.69c-.68-.2-1.06.16-1.5.16s-.8-.35-1.5-.16a5.09 5.09 0 0 0-1.6.69 3.36 3.36 0 0 0-.49 2.16 32 32 0 0 1-.12 3.28zm.42-3.52c.08-.57.17-1.07.6-1.17s.62-.45 1-.38a13.5 13.5 0 0 0 3.28 0c.38-.07.56.27 1 .38s.52.6.6 1.17a1.06 1.06 0 0 1-.55 1.1c-.3.16-.45.64-.7.76s-.72.47-.92.35-.55.07-.68-.2 0-.57.13-.57a2 2 0 0 0 .47-.26c.25-.14.17-.24.17-.24a2.23 2.23 0 0 1-.66.15 2.43 2.43 0 0 1-1 0 2.23 2.23 0 0 1-.66-.15s-.07.1.17.24a2.46 2.46 0 0 0 .47.26c.08 0 .27.3.14.57s-.48.07-.68.2-.66-.23-.92-.35-.42-.6-.72-.76a1.06 1.06 0 0 1-.54-1.1z"/></g><g class="AM"><path d="M666.08 407.9c.54 0 1.15.8 1.16 2 0 1.7.74 4.2.6 4.85a40.84 40.84 0 0 1-2.16 4.35 3.37 3.37 0 0 1 0 1.18c-.14.42-.64 2.2-1.15 2.12h0c-.72-.1-.67-.87-.52-1.58l.14-.67s-.37.4-.53.4-.1-.77.17-1.08 1.06-1.05 1.06-1.05l1-3.9-1-4.23c-.35-1.6.63-2.4 1.28-2.35zm-6.32 30.57c-.1.55 1.2.9 2.1 1.38a2.36 2.36 0 0 0 2 .12 1.58 1.58 0 0 0 .66-.35c.24-.3 0-1.27 0-1.27l-2.17-.5a4.71 4.71 0 0 1-.6-.18c-.4-.14-1.84 0-2 .8z"/><path d="M662.66 438.66c.43.45 1.8-.3 1.8-.3l-2.1-.38c-.2.35-.06.32.3.7zm1.92.34a.9.9 0 0 1-.09.64 1.58 1.58 0 0 1-.66.35 2.36 2.36 0 0 1-2-.12c-.92-.5-2.22-.83-2.1-1.38a.85.85 0 0 1 .09-.22 14.93 14.93 0 0 0 2.94 1.4 3 3 0 0 0 1.83-.67z"/><path d="M659.17 442.66c.2.6 1.73.24 3 .22a2.79 2.79 0 0 0 2.09-1 2.09 2.09 0 0 0 .49-.74c.08-.44-.74-1.3-.74-1.3l-2.52.72a4.53 4.53 0 0 1-.73.16c-.47.07-1.87 1.03-1.6 1.94z"/><path d="M662.28 441.2c.7.16 1.7-1.35 1.7-1.35l-2.4.68c0 .46.1.53.7.67zm2.72-21.47l-1.46 10.24.94 8.37-2.1-.33-2.77-13.08 3.66-5.78 1.74.58z"/><path d="M660.3 421.64s2 1.07 1.9 2.56l-1.8 6.57 3.57 9.07-2.18 1.16-3.86-7.72a9.34 9.34 0 0 1-1-3.53l-.33-4.88 1.25-3zm4.14 18.8a1.14 1.14 0 0 1 .27.72 2.09 2.09 0 0 1-.49.74 2.79 2.79 0 0 1-2.09 1c-1.23 0-2.76.4-3-.22a1.43 1.43 0 0 1 0-.29 17.54 17.54 0 0 0 3.83-.22c.67-.17 1.26-1.3 1.48-1.73z"/><path d="M657.25 413.37l-.15-.7s-.43-.08-.14-.56c-.8 0-.42-.83-.42-.83-1 .38-.85-2.77.5-3.12l3.1-.66 3.3-.22 1.23.33c1.23.32 1.84 0 2.12 1.26l-1.2 3.58-.27 6.27a10.53 10.53 0 0 0 .16 2.31l1.37 2.64a1.92 1.92 0 0 1-1.93.6c-.74-.26-1.16.36-2 .6a5.53 5.53 0 0 1-2.21-.13 4.11 4.11 0 0 0-1.7.22 1.86 1.86 0 0 1-1.8.09 3.35 3.35 0 0 1-1.22-.88l.83-2.42a3.81 3.81 0 0 0 .07-.59zm6.32-8.53h0zm-.57.33h0zm-1.3.46h0zm2.02-.9h0zm.1-.08h0zm.07-.04h0zm-1.14.68h0zm-1.66.36h0zm.32 0h0zm-1.25 1.34l.1-.08a.17.17 0 0 1-.11.08zm3.7-2.36h0z"/><path d="M663.8 404.7l-.07.05zm-.12.07l-.1.07zm-.68.4l-.2.1zm-2.4.36a1.46 1.46 0 0 0 .5.12 1.46 1.46 0 0 1-.5-.12z"/><path d="M661.65 405.64h-.23zm1.07-.34a4.35 4.35 0 0 1-1 .33 4.35 4.35 0 0 0 1-.33zm-1.6.36h0zm2.43-.8a5.06 5.06 0 0 1-.55.32 5.06 5.06 0 0 0 .55-.32zm-5.43-3.35l.47.77.5-.18c0-.05.9-2.47.67-1-.1.6-.5 1.27-.08 1.4a1 1 0 0 1 .44 1.29 1.22 1.22 0 0 1-.55.72l.2.2a1.63 1.63 0 0 0 .84.84l-.3 1.4-.1.08a.17.17 0 0 0 .11-.08s.44-.34-.84-.37c-1.58-.04-1.5-3.84-1.32-5.05z"/><path d="M660.28,406.93h0Z"/><path d="M660.28 406.93l.3-1.4a1.46 1.46 0 0 0 .5.12h.6a4.35 4.35 0 0 0 1-.33h0l.2-.1a5.17 5.17 0 0 0 .5-.29l-.1 2.46a3.75 3.75 0 0 1-3.24.18z"/><path d="M657.9 401.08a3.48 3.48 0 0 0 .73 2c.68.67 1.25 1.53.5 3.53a3.73 3.73 0 0 0 .45 3.74 4.32 4.32 0 0 0 4.84 1.25c1.44-.33 5.3-3.3 4.12-3-2.3.67-3.46-1.37-3.44-3.6s-.15-6.63-3.74-6.48c-3.97.2-3.45 2.57-3.45 2.57zm.1 7.16c.5.27.68 1.62.27 2.8l-2.12 5.88c-.2.23-3.53 3.57-3.53 3.57a8.13 8.13 0 0 1-.84 1.47c-.33.34-1.36 1.5-1.82 1.18h0a1.37 1.37 0 0 1-.26-2l.44-.58s-.54.22-.7.13.37-.54.78-.72a10.66 10.66 0 0 0 1.42-.92l2.75-2.92 1.3-6.2c.4-1.72 1.7-2 2.32-1.7zM450.1 373.9c-.2.13-.28.6 0 1.07l1 1.8 1.76 1.62a1.63 1.63 0 0 0 .28.48c.16.14.77.75 1 .6h0a.61.61 0 0 0 0-.88l-.2-.24s.25.1.3 0-.13-.34-.32-.4l-.7-.25-1.4-1.35-.66-1.8c-.23-.75-.8-.84-1.07-.67zm-4.02-.04c-.24 0-.5.36-.5.87v1.92c0 .12.7 2.1.7 2.1a1.4 1.4 0 0 0 0 .53c.06.18.28.95.5.92a1.64 1.64 0 0 0 .54-.26l-.16-.72s.16.18.23.17.05-.34-.07-.48l-.46-.52-.54-1.73.28-1.78c.15-.7-.3-1.05-.57-1zm2.92 12.26c.05.24-.5.4-.92.6a1 1 0 0 1-.86.06.7.7 0 0 1-.29-.15c-.1-.12 0-.56 0-.56l.95-.22.27-.08c.14-.07.77-.01.85.34z"/><path d="M447.72 386.2c-.2.2-.8-.13-.8-.13l.93-.17c.08.15.03.14-.13.3zm-.84.16a.4.4 0 0 0 0 .28.7.7 0 0 0 .29.15 1 1 0 0 0 .86-.06c.4-.22 1-.37.92-.6a.18.18 0 0 0 0-.1 6.42 6.42 0 0 1-1.28.63 1.38 1.38 0 0 1-.79-.29z"/><path d="M449.27 388c-.1.28-.76.12-1.3.1a1.23 1.23 0 0 1-.93-.42 1 1 0 0 1-.21-.32c0-.2.32-.58.32-.58l1.1.3.32.07c.2-.03.8.38.7.83z"/><path d="M447.9 387.33c-.3.08-.75-.6-.75-.6l1.06.3c0 .2-.05.24-.3.3zm-1.28-9.43l.3 8.18.92-.15.48-5.84-.94-2.45-.76.26z"/><path d="M448.7 378.72a15.52 15.52 0 0 0-.3 2.54l.3 1.47-1.53 4 1 .5 1.67-3.42a4.14 4.14 0 0 0 .41-1.55l.12-2.15-.56-1.3z"/><path d="M447 387a.46.46 0 0 0-.12.32 1 1 0 0 0 .21.32 1.23 1.23 0 0 0 .93.42c.54 0 1.2.17 1.3-.1a.49.49 0 0 0 0-.12 8.23 8.23 0 0 1-1.68-.08c-.33-.1-.64-.56-.64-.75zm3-11.92l.35.9a3.41 3.41 0 0 0 .78-.23 1.39 1.39 0 0 0 .54-.42s-.94-2.4-1.74-2.7l-1.2-.13-1.46-.08-.54.15a1.49 1.49 0 0 0-1.07 1.13l-.16.87a1 1 0 0 0 .41.18 1 1 0 0 0 .43-.05l.17 3.26-.64 3.9 2 .45a3.38 3.38 0 0 0 .9.06 2 2 0 0 1 1 .21l1.24.6-.8-4.4v-.26zm-2.8-3.73h0zm.24.15h0zm.56.2h0zm-.88-.4h0zm-.05-.02h0zm-.02-.02h0z"/><path d="M447.55 371.54h0zm.73.16h0zm-.14 0h0zm.56.6h-.05s0-.01.05 0zm-1.64-1.04h0zm.04.04h0zm.04.02h.05zm.32.18h.1z"/><path d="M448.5 371.65a.64.64 0 0 1-.23.05.64.64 0 0 0 .23-.05zm-.5.05h0z"/><path d="M447.57 371.55a1.69 1.69 0 0 0 .45.14 1.69 1.69 0 0 1-.45-.14zm.7.15h0zm-1.07-.34l.24.13zm2.37-1.5l-.2.34-.2-.08s-.4-1.08-.3-.44c0 .27.23.56 0 .62a.43.43 0 0 0-.19.57.55.55 0 0 0 .24.31l-.08.1a.72.72 0 0 1-.36.37l.14.6s-.2-.15.36-.17.7-1.7.6-2.22z"/><path d="M448.65,372.26Z"/><path d="M448.65 372.26l-.14-.6a.64.64 0 0 1-.23.05H448a1.69 1.69 0 0 1-.45-.14h0-.1l-.22-.12.06 1.08a1.65 1.65 0 0 0 1.42.07z"/><path d="M449.67 369.68a1.55 1.55 0 0 1-.32.87 1.44 1.44 0 0 0-.18 1.67 4.08 4.08 0 0 1 .32 1.83 1.07 1.07 0 0 1-.66.89 3.14 3.14 0 0 1-1.33.27 2.14 2.14 0 0 1-.89-.43 1.25 1.25 0 0 1-.46-1.4 5.88 5.88 0 0 0 .37-1.95c0-.94 0-2.9 1.62-2.86 1.74.06 1.53 1.1 1.53 1.1z"/></g><path class="b AN" d="M771.2 443.52c-.23-.63-3.14-1.23-8.2-1.7s-11.66-.73-18.58-.74c-12.8 0-25.26 1-26.65 2.14l-5.3 3.27 35.6-.52c12.76-.13 23.58-1.28 23.14-2.46zm-35.4.85c-5.8-.53-6.12-1.36-.7-1.86a133.26 133.26 0 0 1 20.37 0c5.8.53 6.1 1.37.7 1.87a134.57 134.57 0 0 1-20.37-.01z"/><g class="AM"><path d="M729.7 384.42a24.27 24.27 0 0 0-34.33 0c-8.48 8.48-9.53 24.44-2.28 34.1l19.45 28.08 19.4-28c7.3-9.75 6.23-25.7-2.25-34.2zm-16.94 30.43a13.5 13.5 0 1 1 13.49-13.5 13.52 13.52 0 0 1-13.49 13.5zm-159.32-54.63a5.88 5.88 0 0 0-8.33 0 6.71 6.71 0 0 0-.55 8.27l4.72 6.82 4.72-6.8a6.7 6.7 0 0 0-.56-8.28zm-4.1 7.38a3.28 3.28 0 1 1 3.28-3.27 3.28 3.28 0 0 1-3.28 3.27z"/></g><path class="b AN" d="M563.2 374.5c-.06-.17-.75-.33-2-.46a42.81 42.81 0 0 0-4.4-.2c-3 0-6 .26-6.3.58l-1.26.9 8.43-.14c3.08-.04 5.64-.35 5.54-.68zm-8.4.24c-1.38-.15-1.45-.38-.17-.5a26.88 26.88 0 0 1 4.83 0c1.38.14 1.45.37.17.5a27.84 27.84 0 0 1-4.83 0zM243.93 281.5h-32.18V210h32.18a15.12 15.12 0 0 1 15.13 15.13v41.28a15.12 15.12 0 0 1-15.13 15.1z"/><rect x="165.38" y="196.97" width="80.68" height="71.54" rx="10.76" class="AY"/><path d="M235.3 271h-59.17a13.28 13.28 0 0 1-13.26-13.26v-50a13.27 13.27 0 0 1 13.26-13.25h59.17a13.27 13.27 0 0 1 13.26 13.25v50A13.28 13.28 0 0 1 235.31 271zm-59.17-71.54a8.27 8.27 0 0 0-8.26 8.25v50a8.27 8.27 0 0 0 8.26 8.26h59.17a8.27 8.27 0 0 0 8.26-8.26v-50a8.27 8.27 0 0 0-8.26-8.25z" class="Ac"/><path d="M199.3 247.43h-.08a3.49 3.49 0 0 1-2.51-1.14l-9.5-10.43a3.5 3.5 0 0 1 5.18-4.71l7 7.7 19.75-19.8a3.5 3.5 0 0 1 5 5L201.8 246.4a3.5 3.5 0 0 1-2.48 1.03z" fill="#33b7fd"/><path d="M223.38 208.22h-35.3a2.5 2.5 0 0 1 0-5h35.3a2.5 2.5 0 0 1 0 5z" class="Ac"/><path d="M217.58 199.68a11.86 11.86 0 1 0-22 6h20.3a11.73 11.73 0 0 0 1.7-6" fill="#fff"/><path d="M215.88 208.22h-20.3a2.51 2.51 0 0 1-2.15-1.23A14.36 14.36 0 1 1 218 207a2.51 2.51 0 0 1-2.12 1.22zm-18.78-5h17.26a9.07 9.07 0 0 0 .72-3.54 9.36 9.36 0 0 0-18.71 0 8.91 8.91 0 0 0 .73 3.54z" class="Ac"/><path class="b AN" d="M694.7 94v35.48a16.86 16.86 0 0 0 16.87 16.86h59.17a16.81 16.81 0 0 0 6.25-1.24V94z"/><rect x="707.8" y="50.86" width="92.9" height="82.38" rx="12.39" fill="#d6f1da"/><g class="AU"><path d="M788.32 135.74H720.2a14.91 14.91 0 0 1-14.89-14.89v-57.6a14.9 14.9 0 0 1 14.89-14.88h68.13a14.9 14.9 0 0 1 14.89 14.88v57.6a14.91 14.91 0 0 1-14.89 14.89zM720.2 53.36a9.9 9.9 0 0 0-9.89 9.88v57.6a9.91 9.91 0 0 0 9.89 9.89h68.13a9.91 9.91 0 0 0 9.89-9.89v-57.6a9.9 9.9 0 0 0-9.89-9.88zm54.4 10.07h-40.67a2.5 2.5 0 0 1 0-5h40.67a2.5 2.5 0 0 1 0 5z"/></g><path d="M767.9 54a13.66 13.66 0 1 0-25.35 7H766a13.58 13.58 0 0 0 2-7" fill="#fff"/><path d="M766 63.43h-23.44a2.5 2.5 0 0 1-2.15-1.22 16.16 16.16 0 1 1 27.69 0 2.5 2.5 0 0 1-2.1 1.22zm-21.88-5h20.37a10.81 10.81 0 0 0 1-4.45 11.16 11.16 0 0 0-22.31 0 10.81 10.81 0 0 0 .89 4.45z" class="AU"/><g fill="#5ac569"><path d="M729.84 109.05h-.08a3.47 3.47 0 0 1-2.5-1.14l-8-8.8a3.501 3.501 0 0 1 5.18-4.71l5.53 6.07L746.2 84.2a3.5 3.5 0 1 1 4.95 4.94L732.32 108a3.49 3.49 0 0 1-2.48 1.05zm56.83-9.45h-17.95a3.5 3.5 0 0 1 0-7h17.95a3.5 3.5 0 0 1 0 7zm0-18.73h-17.95a3.5 3.5 0 0 1 0-7h17.95a3.5 3.5 0 0 1 0 7zm0 37.47h-17.95a3.5 3.5 0 0 1 0-7h17.95a3.5 3.5 0 0 1 0 7z"/></g><path class="b AN" d="M219.33 489.67l-17.73 1.87a84.55 84.55 0 0 0 1.06 31.52l6.5-1.2a4.28 4.28 0 0 0 3.33-3l8.34-27.4a1.42 1.42 0 0 0-1.5-1.79z"/><path d="M173.47 649.34c-2-1.28-6.6-9.13-6.6-9.13s-2.12-5.44-5.6-3.7c-2.12 1.06-2.28 3.5-1.76 5.37l1.2 9.26h.65l-.2-6.4c1 1.85 1.7 5.56 2.9 6.93 1.42 1.6 7.86 1.15 9.12 1.15s2.92-1.74.27-3.48z"/><path d="M159.8 628l7.07.27s-1.23 5.83-.2 9.2c1 2.5 3.7 8.75 4.44 9.83.92 1.36-1.72 1.36-3.35.72s-5.87-7.2-6.33-8.44a6.57 6.57 0 0 1-.17-2.82z" class="AS"/><path d="M130.18 648.4c-.74-2.22.47-11.25.47-11.25s1.7-5.6-2.1-6.38c-2.32-.48-3.95 1.34-4.7 3.13l-4.78 8 .5.42 3.8-5.14c-.36 2.07-2.1 5.4-2 7.24.12 2.14 5.46 5.76 6.45 6.54s3.38.44 2.37-2.56z"/><path d="M132.63 623.17l5.4 4.6s-4.58 3.82-5.87 7.1c-.72 2.62-2.5 9.18-2.6 10.48-.12 1.63-2.2 0-3.07-1.52s-.17-9.27.24-10.54a7 7 0 0 1 1.79-2.48z" class="AS"/><g class="AP"><path d="M171.64 535.47a266.89 266.89 0 0 1 3.62 27.67c.7 10.18.77 25.16-1.2 37.7-1.72 10.9-5.1 22.83-6.16 34.33a9.51 9.51 0 0 1-8.67-.13c-.17-18 1.26-30.67.43-47.55s-8.26-32.63-9.52-48.32c1.6-1.72 6.72-5.28 8.43-7.53 4.35 1.26 8.7 2.76 13.08 3.83z"/><path d="M163 539c1 12-2.4 22.5-2.62 34.72s-1 24.78-7.36 36.18c-4.36 7.77-12.1 15.17-16.47 23.25-3.1-.28-6.1-1-7.12-4.16 5.25-11.12 12.88-20.4 13.78-32.87a121.35 121.35 0 0 0-.38-21.59c-1.15-10.35-2.26-18.5.44-28.6.6-2.24 1.9-4 3.06-6 5.57.72 11-1.34 16.67-.93z"/></g><path d="M159.92 451.17c-3.8.34-7.94 1.37-10.15 7a16.75 16.75 0 0 0 .09 12.07c1.64 5.4.65 8-.15 11.22-.7 2.88-2.7 6-3.52 8.65a30.36 30.36 0 0 0-.87 7.79c.12.2 31.4 2.83 31.4 2.83s-.57-5.83-2.3-8.9c-1.15-2-4.4-7.48-2.95-13.25s4.35-9.54 1.6-18.4-9.37-9.37-13.13-9.03z"/><g class="AW"><path d="M171 510a27.29 27.29 0 0 1-1.69-11.9c.27-6.75 2.88-8 2.88-8 10.84 1.44 15.48 25.56 15.48 27.25M173.37 536c-6.92-2.5-21.8-6.12-27.32-2 0 0-3.85 2.4-6.45 9.93a25.15 25.15 0 0 0-.93 3.4 53.42 53.42 0 0 0 17.93 9c1.2.37 2.43.7 3.67 1a51.25 51.25 0 0 0 18 .75c-2.75-10.84-4.9-22.08-4.9-22.08z"/></g><path d="M163.15 486.62l9.4 3.52c1.4.6 3.74 6.68 4.76 9.44s0 6.9-2.1 11.76-2.6 8.5-2.2 14.52c.33 4.95 2.85 18.53 4.93 23.54 1 2.5-24.1 3.82-38.57-7.8a50.56 50.56 0 0 0 5.26-19.91c.1-1.8-4.3-16.1-4.3-16.1s-.54-12.72 2.7-15.24c2.82-2.2 10.5-3 11.9-3.45a23.55 23.55 0 0 1 8.21-.27z" class="AX"/><path d="M164.54 496.25l2.62-3.07-2.28-8.1a53.76 53.76 0 0 0-.34 11.17z" fill="#67a0ff"/><path d="M165.22 481.63a102.61 102.61 0 0 0-.69 10.51s.07 1.26 0 4.1c-3.66-4.13-6.36-3.18-9.6-9.36 0 0 2.22-6.14.6-11.62 6.53 8.63 9.7 6.36 9.7 6.36z" class="AS"/><path d="M164.53 496.25l-2.14-2.66-7.2-6.4 2.17 5.72 7.17 3.34z" fill="#67a0ff"/><g class="AW"><path d="M167.16 493.18l3.3.9-3.27-6.7a4.75 4.75 0 0 0-1.64-1.86l-.68-.46zm-4.76.42l-3 4.85-5.07-8.54c-1.64-3.85 1-4.4 1-4.4s-.43 1 2.87 4.18l4.2 3.92z"/></g><path d="M161.57 454.66s8-.2 9.42 9.2.2 18.07-3.25 19c-1.8.5-9.27.32-11.15-4.57s-4.6-8.45-4.2-12.66-.6-11.14 9.18-10.98z" class="AS"/><path d="M165.1 483.05a13.42 13.42 0 0 1-6.52-2.46 15.5 15.5 0 0 0 6.33 4.54 20.6 20.6 0 0 0 .19-2.08z" fill="#a77860"/><path d="M164.63 451.65c-10.52-2.34-13 5.37-14.13 9.52s1.6 9.38 1.6 9.38-4.7 16.95-1.74 17.2c2.12.17 1.47 8.47 2.56 10.53 1.86 3.54 4.58 1.57 4.58 1.57s0-14.9-.32-18.54c-.45-4.7-2.24-12.5-2.24-12.5l3.6 8s-3.65-17.3 3.93-17.68a4.36 4.36 0 0 1 .83-.16 6.38 6.38 0 0 1 6.39 3 9.79 9.79 0 0 1 1 2.06 17.9 17.9 0 0 1 .91 6.09s4.95-15.82-6.96-18.47z"/><path d="M159.3 458.4l4.7 3.9a48.12 48.12 0 0 0 7.5 4.69s1.6-6.2-2.1-8.18c-7.38-3.97-10.08-.4-10.08-.4z"/><path d="M162.14 458.7s1.92 5.56 4.52 7.07c0 0-6.24-2.4-9.12-6.3"/><path d="M179.13 538.36s-7.5 1.17-8.74.87-9.4-3.86-9.9-7.36 19 3.14 19 3.14z" class="AS"/><path d="M150.1 527.87l32-3.75-12.3 11.37-2.17.4-17.54-8z" fill="#666"/><path d="M167.64 535.88L151 530.2a1.34 1.34 0 0 1-.89-1.25v-1.1l17.4 5.57 3 1.9z" fill="#4d4d4d"/><path d="M164.34 522.4a27.52 27.52 0 0 0 4.12-.3c1.15-.23 4 .1 4.73.73s3 5.13 3.47 5.4-.22.9-1 .6c0 0-.7 2-2.44 1.23s-2.92-2.34-3.83-2.62l-6.2-1.7s-.18-3.8 1.16-3.32z" class="AS"/><path d="M172.9 534.4s.33 4.07 0 4.93c0 0 14.18-1.37 16-4.13a11.87 11.87 0 0 0 1.77-6.11z" class="AW"/><path d="M168.26 533.6l8-29.56a4.29 4.29 0 0 1 3.69-3.16l30.43-3.2a1.42 1.42 0 0 1 1.5 1.82l-8.34 27.4a4.3 4.3 0 0 1-3.33 3l-30.2 5.57a1.49 1.49 0 0 1-1.74-1.85z" fill="#dbe1e9"/><path d="M144.07 522l8.4-.4c4.4 0 11.94.48 11.94.48l-.9 4.7s-13.34 2.17-20.63 2.68h0s-9.6 1.1-10.33-.33.24-10.65 1.8-19 2.44-14.15 4.35-16.7c.87-1.17 3.82-5 8.75-2.85s1.38 12.75 1.38 12.75l-6 14.65s-1.23 2.5-1.16 3.58a.58.58 0 0 0 .55.55l1.34-.1z" class="AW"/><ellipse cx="190.99" cy="516.49" rx="2.91" ry="2.06" transform="matrix(.577573 -.816339 .816339 .577573 -340.96 374.13)" fill="#f2f4f7"/><path class="b AN" d="M648.58 117.56zM606 94l5.8 21c2.17 7 5.4 18.7 5.4 18.7a5.8 5.8 0 0 0 1.53.46l1 5.92a7.16 7.16 0 0 0 1.27 3.08c1 1.38 2.65 3.32 5.43 2.83 2.22-.4 3.28-3.4 3.1-6.5a7.62 7.62 0 0 0-.21-1.34l-1.48-6.15.76-.47s-3.17-11-5.28-21.06c-1.06-5.08-1.92-11.22-2.47-15.55h0l2.62-.2 9-.66c.32 4.2.74 10.57.8 15.38a194.17 194.17 0 0 1-1.55 23.07 3.19 3.19 0 0 0 .83.52l-.36 6.83c.27 3.6 2.1 6.14 4.83 6.1s4.55-2.88 5-5.52l-.12-7.1a5.87 5.87 0 0 0 1.41-.7 212.21 212.21 0 0 0 3.07-22.24c.32-5.48.5-12 .58-16.37z"/></g></g></svg>