<svg xmlns="http://www.w3.org/2000/svg" xmlns:xlink="http://www.w3.org/1999/xlink" viewBox="0 0 630 500"><defs><style>.cls-1{isolation:isolate;}.cls-2{opacity:0.2;}.cls-3{fill:#98dba1;}.cls-4{fill:#80d2fe;}.cls-5{fill:#92bbff;}.cls-6{fill:#b1f0ef;}.cls-7{fill:#fdd499;}.cls-8{fill:#ff8080;}.cls-9{mix-blend-mode:multiply;fill:url(#linear-gradient);}.cls-10{fill:#bed6ff;}.cls-11{opacity:0.06;}.cls-12{fill:none;}.cls-13{fill:#fff;}.cls-14{fill:#a8c9ff;}.cls-15{fill:#9eecea;}.cls-16{fill:#fcc;}.cls-17{fill:#fcc980;}.cls-18{fill:#d4e4ff;}.cls-19{fill:#feeacc;}.cls-20{fill:#d6f1da;}.cls-21{fill:#ccedff;}.cls-22{opacity:0.1;}</style><linearGradient id="linear-gradient" x1="316.71" y1="434.27" x2="316.71" y2="410.88" gradientUnits="userSpaceOnUse"><stop offset="0.08" stop-color="#dbe1e9" stop-opacity="0.7"/><stop offset="0.2" stop-color="#dbe1e9" stop-opacity="0.68"/><stop offset="0.35" stop-color="#dbe1e9" stop-opacity="0.62"/><stop offset="0.51" stop-color="#dbe1e9" stop-opacity="0.52"/><stop offset="0.67" stop-color="#dbe1e9" stop-opacity="0.38"/><stop offset="0.83" stop-color="#dbe1e9" stop-opacity="0.21"/><stop offset="1" stop-color="#dbe1e9" stop-opacity="0"/></linearGradient></defs><title>Reports - General</title><g class="cls-1"><g id="Layer_1" data-name="Layer 1"><g class="cls-2"><circle class="cls-3" cx="229.46" cy="51.47" r="23.08"/><circle class="cls-3" cx="315.21" cy="458.94" r="15.49"/><circle class="cls-4" cx="194.99" cy="400.89" r="32.3"/><circle class="cls-5" cx="571.38" cy="154.9" r="21.43"/><circle class="cls-5" cx="508.66" cy="425.61" r="19.59"/><circle class="cls-6" cx="119.28" cy="212.83" r="14.42"/><circle class="cls-5" cx="105.04" cy="114.08" r="14.42"/><circle class="cls-7" cx="49.17" cy="237.22" r="22.52"/><circle class="cls-7" cx="570.81" cy="307.93" r="21.21"/><circle class="cls-8" cx="96.68" cy="314.42" r="15.78"/><circle class="cls-8" cx="458.94" cy="96.17" r="13.53"/><circle class="cls-6" cx="329.79" cy="97.78" r="20.71"/></g><ellipse class="cls-9" cx="316.71" cy="418.74" rx="157.22" ry="8.65"/><path class="cls-10" d="M368.43,419.56H269.29s3.11,0,6.45-8.82c1.25-3.32,8.07-22.33,8.07-22.33H354s6.67,18.68,8.2,22.33C365.64,419,368.43,419.56,368.43,419.56Z"/><g class="cls-11"><path d="M354,388.41H283.81s-2.39,6.61-4.6,12.7h79.38C356.35,395,354,388.41,354,388.41Z"/></g><path class="cls-12" d="M368.43,419.34H269.29s3.11,0,6.45-8.76c1.25-3.29,8.07-22.17,8.07-22.17H354s6.67,18.55,8.2,22.17C365.64,418.75,368.43,419.34,368.43,419.34Z"/><rect class="cls-10" x="127.22" y="139.5" width="383.35" height="248.81" rx="7.04"/><path class="cls-10" d="M503.53,389H134.26a7.75,7.75,0,0,1-7.74-7.74V146.54a7.75,7.75,0,0,1,7.74-7.74H503.53a7.75,7.75,0,0,1,7.74,7.74V381.28A7.75,7.75,0,0,1,503.53,389ZM134.26,140.2a6.34,6.34,0,0,0-6.34,6.34V381.28a6.34,6.34,0,0,0,6.34,6.33H503.53a6.34,6.34,0,0,0,6.33-6.33V146.54a6.34,6.34,0,0,0-6.33-6.34Z"/><rect class="cls-13" x="140.53" y="154.06" width="356.73" height="199.67"/><path class="cls-14" d="M379,426.63H258.83a3.6,3.6,0,0,1,0-7.2H379a3.6,3.6,0,1,1,0,7.2Z"/><circle class="cls-13" cx="318.89" cy="370.95" r="8.68"/><rect class="cls-15" x="227.89" y="291.6" width="17.63" height="51.66"/><rect class="cls-16" x="261.24" y="268.41" width="17.63" height="74.85"/><rect class="cls-5" x="294.59" y="243.36" width="17.63" height="99.9"/><rect class="cls-3" x="327.94" y="269.8" width="17.63" height="73.46"/><rect class="cls-4" x="361.29" y="245.24" width="17.63" height="98.03"/><rect class="cls-17" x="394.64" y="215.4" width="17.63" height="127.86"/><path class="cls-18" d="M212,290.58,203.07,301a37.74,37.74,0,0,0,24.69,9.14V296.44A24.17,24.17,0,0,1,212,290.58Z"/><path class="cls-16" d="M206.75,284.3l-11.83,6.83a38,38,0,0,0,8.15,9.82L212,290.58A24.25,24.25,0,0,1,206.75,284.3Z"/><path class="cls-19" d="M203.49,272.17a24.27,24.27,0,0,1,13.19-21.59l-6.23-12.15a37.92,37.92,0,0,0-15.53,52.7l11.83-6.83A24.1,24.1,0,0,1,203.49,272.17Z"/><path class="cls-20" d="M243.56,253.76l8.89-10.37a37.74,37.74,0,0,0-24.69-9.14V247.9A24.15,24.15,0,0,1,243.56,253.76Z"/><path class="cls-21" d="M227.76,247.9V234.25a37.72,37.72,0,0,0-17.31,4.18l6.23,12.15A24.17,24.17,0,0,1,227.76,247.9Z"/><polygon class="cls-4" points="414.34 163.95 388.39 168.56 395.03 176.06 335.87 233.4 304.45 202.64 228.24 262.5 233.18 268.79 303.87 213.27 335.83 244.56 400.34 182.06 406.44 188.94 414.34 163.95"/><circle class="cls-22" cx="497.63" cy="263.22" r="71.38"/><circle class="cls-3" cx="504.63" cy="256.22" r="71.38"/><path class="cls-13" d="M560.43,256.3a9.83,9.83,0,0,0-16.64-5.06L526.42,240.5a9.67,9.67,0,0,0,.17-4.39h0a9.84,9.84,0,1,0-19.32,3.71,9.67,9.67,0,0,0,2.28,4.64l-12.84,18.07a9.8,9.8,0,0,0-13.5,3l-14.94-8.27a9.73,9.73,0,0,0,.27-4.78,9.84,9.84,0,1,0-2.21,8.28l15.44,8.54a9.83,9.83,0,0,0,9.68,11.4,10.05,10.05,0,0,0,1.88-.18,9.85,9.85,0,0,0,7.8-11.52h0a9.71,9.71,0,0,0-1.51-3.65l13.13-18.47a9.73,9.73,0,0,0,4.18.94,9.15,9.15,0,0,0,1.86-.18,9.79,9.79,0,0,0,5.82-3.53l17,10.51a9.73,9.73,0,0,0-.51,5.42,9.84,9.84,0,0,0,19.32-3.72ZM460,260.05a5.84,5.84,0,1,1-2.21-11.46,6,6,0,0,1,1.11-.11,5.84,5.84,0,0,1,1.1,11.57Zm32.58,16.52a5.84,5.84,0,0,1-2.2-11.47,5.92,5.92,0,0,1,1.1-.1,5.83,5.83,0,0,1,5.73,4.73h0A5.85,5.85,0,0,1,492.57,276.57ZM518,243.7a5.84,5.84,0,0,1-2.2-11.47,5.92,5.92,0,0,1,1.1-.1,5.85,5.85,0,0,1,5.73,4.73h0A5.85,5.85,0,0,1,518,243.7Zm33.85,20.19a5.84,5.84,0,1,1-2.21-11.46,6,6,0,0,1,1.1-.11,5.84,5.84,0,0,1,1.11,11.57Z"/></g></g></svg>