<svg xmlns="http://www.w3.org/2000/svg" xmlns:xlink="http://www.w3.org/1999/xlink" viewBox="0 0 960 660" xmlns:v="https://vecta.io/nano"><style><![CDATA[.B{isolation:isolate}.T,.Y,.y{mix-blend-mode:multiply}.AF{fill:#fff}.AG{fill:#ff8080}.AH{fill:#7daeff}.AI{opacity:.1}.AJ{fill:#ffd853}.AK{fill:none}.AL{opacity:.3}.AM{fill:#ecc02e}.AN{fill:#053454}.AO{fill:#9eecea}.AP{fill:#98dba1}.AQ{fill:#92bbff}.AR{fill:#ffe68f}.AS{fill:#66c9fe}.AT{stroke-miterlimit:10}]]></style><defs><clipPath id="A"><path d="M373.13 582.4c32-.23 57.8-12.1 57.68-26.48l.1 13c.1 14.4-25.72 26.25-57.68 26.48s-58-11.25-58.07-25.64l-.1-13c.1 14.4 26.1 25.87 58.06 25.64z" class="AK"/></clipPath><clipPath id="B"><path d="M363.24 562.62c32-.22 57.8-12.07 57.7-26.47l.1 13c.1 14.4-25.72 26.25-57.7 26.47s-57.95-11.25-58.05-25.62l-.1-13c.1 14.36 26.1 25.85 58.05 25.62z" class="AK"/></clipPath><clipPath id="C"><path d="M371.15 543.85c32-.23 57.8-12.1 57.7-26.48l.1 13c.1 14.4-25.72 26.25-57.68 26.48s-58-11.25-58.06-25.64l-.1-13c.1 14.4 26.1 25.88 58.06 25.64z" class="AK"/></clipPath><clipPath id="D"><path d="M364.24 525.07c32-.23 57.78-12.08 57.68-26.48l.1 13c.1 14.4-25.72 26.25-57.68 26.48s-58-11.24-58.06-25.64l-.1-13c.1 14.4 26.1 25.88 58.07 25.64z" class="AK"/></clipPath><clipPath id="E"><path d="M434.5 535.08c-17.63-26.67-22.18-54.72-10.17-62.65l-10.85 7.17c-12 7.94-7.46 36 10.16 62.65s41.65 41.85 53.65 33.9l10.86-7.16c-12 7.93-36.03-7.25-53.65-33.92z" class="AK"/></clipPath><clipPath id="F"><path d="M423.3 477.23l-4.3-4.37 2.37-3.52 2.4 3.05 6.86-9.43.75 2-7.9 10.5-2.67-2.95.14-.2.25-.36.07-.1 2.3 2.66 7-9.44-.26-.63-6.66 9.06-2.34-2.86-1.4 2.07 3.48 3.7 8.2-10.82v.1l.15.4v.1z" class="AK"/></clipPath><path id="G" d="M182.16 216.84a2.75 2.75 0 0 1-2.75-2.75v-15.73a2.76 2.76 0 0 1 5.51 0v15.73a2.76 2.76 0 0 1-2.76 2.75z"/><path id="H" d="M200.25 216.84a2.75 2.75 0 0 1-2.75-2.75v-15.73a2.75 2.75 0 0 1 5.5 0v15.73a2.75 2.75 0 0 1-2.75 2.75z"/><path id="I" d="M311.13 216.84a2.76 2.76 0 0 1-2.76-2.75v-15.73a2.76 2.76 0 0 1 5.51 0v15.73a2.75 2.75 0 0 1-2.75 2.75z"/><path id="J" d="M188.85 287.6h12.58v12.58h-12.58z"/><path id="K" d="M386.18 604.27a.82.82 0 0 1-.82-.81l-.3-42.44a.81.81 0 0 1 .8-.82h0a.81.81 0 0 1 .81.81l.3 42.44a.82.82 0 0 1-.81.82z"/><path id="L" d="M373.27 604.28a.82.82 0 0 1-.82-.8l-.3-42.44a.8.8 0 0 1 .8-.82h0a.81.81 0 0 1 .81.81l.3 42.44a.81.81 0 0 1-.81.81z"/><path id="M" d="M364.66 604.3a.81.81 0 0 1-.81-.81l-.3-42.44a.82.82 0 0 1 .81-.82h0a.81.81 0 0 1 .81.81l.3 42.44a.81.81 0 0 1-.8.82z"/><path id="N" d="M356.05 604.3a.81.81 0 0 1-.81-.81l-.3-42.44a.82.82 0 0 1 .81-.82h0a.82.82 0 0 1 .81.81l.3 42.44a.82.82 0 0 1-.81.82z"/><path id="O" d="M321.63 604.35a.8.8 0 0 1-.81-.8l-.3-42.44a.81.81 0 0 1 .8-.82h0a.8.8 0 0 1 .81.8l.3 42.44a.82.82 0 0 1-.81.82z"/><path id="P" d="M406.4 584.46a.82.82 0 0 1-.82-.8l-.3-42.44a.8.8 0 0 1 .8-.82h0a.81.81 0 0 1 .81.8l.3 42.44a.82.82 0 0 1-.81.82z"/><path id="Q" d="M372 584.5a.81.81 0 0 1-.81-.81l-.3-42.44a.82.82 0 0 1 .81-.82.84.84 0 0 1 .82.81l.3 42.44a.8.8 0 0 1-.8.82z"/><path id="R" d="M346.16 584.53a.81.81 0 0 1-.81-.81l-.3-42.44a.82.82 0 0 1 .81-.82h0a.82.82 0 0 1 .82.81l.3 42.44a.81.81 0 0 1-.8.82z"/><path id="S" d="M307.43 584.57a.81.81 0 0 1-.81-.81l-.3-42.44a.82.82 0 0 1 .81-.82h0a.82.82 0 0 1 .82.81l.3 42.44a.8.8 0 0 1-.8.82z"/><path id="T" d="M410 565.7a.81.81 0 0 1-.81-.81l-.3-42.44a.82.82 0 0 1 .81-.82h0a.81.81 0 0 1 .81.81l.3 42.44a.82.82 0 0 1-.81.82z"/><path id="U" d="M384.2 565.72a.81.81 0 0 1-.81-.81l-.3-42.44a.81.81 0 0 1 .81-.81.77.77 0 0 1 .81.8l.3 42.44a.81.81 0 0 1-.8.82z"/><path id="V" d="M375.6 565.73a.81.81 0 0 1-.81-.8l-.3-42.44a.82.82 0 0 1 .81-.82h0a.82.82 0 0 1 .81.8l.3 42.44a.82.82 0 0 1-.81.82z"/><path id="W" d="M354.08 565.76a.82.82 0 0 1-.82-.81l-.3-42.44a.8.8 0 0 1 .8-.81h0a.8.8 0 0 1 .81.8l.3 42.44a.82.82 0 0 1-.81.82z"/><path id="X" d="M409.74 536.8a.81.81 0 0 1-.45-1.49l35.4-23.4a.81.81 0 1 1 .9 1.35l-35.4 23.4a.82.82 0 0 1-.45.14z"/><path id="Y" d="M412.14 540.37a.82.82 0 0 1-.68-.36.81.81 0 0 1 .23-1.13l35.4-23.4a.81.81 0 0 1 .89 1.36l-35.4 23.4a.78.78 0 0 1-.44.13z"/><path id="Z" d="M428.9 565.4a.78.78 0 0 1-.67-.36.81.81 0 0 1 .23-1.13l35.4-23.4a.83.83 0 0 1 1.13.23.82.82 0 0 1-.23 1.13l-35.4 23.4a.81.81 0 0 1-.45.13z"/><path id="a" d="M389.1 481.34l1.63 1a1.56 1.56 0 0 0 1.53.13l.13-.05a.51.51 0 0 0 .06-.86l-1.4-.9-1.93-1.5-.6-.5-2-1.87a36.25 36.25 0 0 1 2.57 4.54z"/></defs><g class="B"><g><rect x="162.11" y="202.69" width="205.24" height="205.24" rx="8.55" fill="#c5f4f3"/><path d="M170.66 202.7H358.8a8.55 8.55 0 0 1 8.55 8.55v50.43a0 0 0 0 1 0 0H162.1a0 0 0 0 1 0 0v-50.44a8.55 8.55 0 0 1 8.55-8.54z" class="AO"/><circle cx="182.16" cy="214.09" r="5.11" class="AF"/><use xlink:href="#G" class="AH"/><circle cx="200.25" cy="214.09" r="5.11" class="AF"/><use xlink:href="#H" class="AH"/><circle cx="219.12" cy="214.09" r="5.11" class="AF"/><use xlink:href="#H" x="18.87" class="AH"/><circle cx="237.21" cy="214.09" r="5.11" class="AF"/><use xlink:href="#H" x="36.95" class="AH"/><circle cx="256.08" cy="214.09" r="5.11" class="AF"/><use xlink:href="#H" x="55.83" class="AH"/><circle cx="274.17" cy="214.09" r="5.11" class="AF"/><use xlink:href="#H" x="73.92" class="AH"/><circle cx="292.25" cy="214.09" r="5.11" class="AF"/><use xlink:href="#G" x="110.28" class="AH"/><circle cx="311.13" cy="214.09" r="5.11" class="AF"/><use xlink:href="#I" class="AH"/><circle cx="329.21" cy="214.09" r="5.11" class="AF"/><use xlink:href="#G" x="147.04" class="AH"/><circle cx="348.09" cy="214.09" r="5.11" class="AF"/><use xlink:href="#I" x="36.97" class="AH"/><g opacity=".4" class="AF"><rect x="202.22" y="236.5" width="125.03" height="14.15" rx="7.08"/><rect x="339.04" y="236.5" width="17.3" height="14.15" rx="7.08"/><rect x="173.91" y="236.5" width="17.3" height="14.15" rx="7.08"/></g><g fill="#8ae9e6"><use xlink:href="#J"/><use xlink:href="#J" x="27.52"/><use xlink:href="#J" x="55.83"/><path d="M273 287.6h12.58v12.58H273zm27.5 0h12.58v12.58H300.5z"/><use xlink:href="#J" x="139.97"/><use xlink:href="#J" y="26.75"/><use xlink:href="#J" x="27.52" y="26.75"/><use xlink:href="#J" x="55.83" y="26.75"/><path d="M273 314.35h12.58v12.58H273zm27.5 0h12.58v12.58H300.5z"/><use xlink:href="#J" x="139.97" y="26.75"/><use xlink:href="#J" y="53.5"/><use xlink:href="#J" x="27.52" y="53.5"/><use xlink:href="#J" x="55.83" y="53.5"/><path d="M273 341.1h12.58v12.58H273zm27.5 0h12.58v12.58H300.5z"/><use xlink:href="#J" x="139.97" y="53.5"/><use xlink:href="#J" y="80.22"/><use xlink:href="#J" x="27.52" y="80.22"/><use xlink:href="#J" x="55.83" y="80.22"/><path d="M273 367.82h12.58v12.58H273zm27.5 0h12.58v12.58H300.5z"/><use xlink:href="#J" x="139.97" y="80.22"/></g><g opacity=".2"><g class="AP"><circle cx="166.6" cy="129.8" r="23.08"/><circle cx="667.25" cy="578.26" r="15.49"/></g><circle cx="340.42" cy="459.65" r="32.3" class="AG"/><g class="AQ"><circle cx="627.13" cy="118" r="21.43"/><circle cx="854.76" cy="533.8" r="19.59"/></g><circle cx="119.22" cy="292.17" r="14.42" fill="#b1f0ef"/><circle cx="62.16" cy="202.07" r="14.42" class="AG"/><g fill="#fdd499"><circle cx="59.51" cy="398.35" r="22.52"/><circle cx="811.01" cy="419.81" r="21.21"/></g><circle cx="259.45" cy="514.82" r="15.78" class="AQ"/><circle cx="763.36" cy="57.86" r="13.53" class="AG"/><circle cx="337.3" cy="100.25" r="20.71" fill="#b1f0ef"/></g><path d="M750.23 131.56H734.4a3.1 3.1 0 0 1-3.09-3.1v-15.83a3.1 3.1 0 0 1 3.09-3.09h16.17a2.76 2.76 0 0 1 2.76 2.75v16.17a3.1 3.1 0 0 1-3.1 3.1zm-15.83-20a1.09 1.09 0 0 0-1.09 1.09v15.83a1.1 1.1 0 0 0 1.09 1.1h15.83a1.11 1.11 0 0 0 1.1-1.1v-16.2a.75.75 0 0 0-.76-.75z" fill="#bed6ff"/><g opacity=".5" class="AO"><path d="M750.23 207.46H734.4a3.09 3.09 0 0 1-3.09-3.09v-15.83a3.1 3.1 0 0 1 3.09-3.1h15.83a3.1 3.1 0 0 1 3.1 3.1v15.83a3.09 3.09 0 0 1-3.1 3.09zm-15.83-20a1.1 1.1 0 0 0-1.09 1.1v15.83a1.09 1.09 0 0 0 1.09 1.09h15.83a1.1 1.1 0 0 0 1.1-1.09v-15.85a1.11 1.11 0 0 0-1.1-1.1z"/></g><g class="AI AG"><path d="M750.23 283.37H734.4a3.1 3.1 0 0 1-3.09-3.09v-15.83a3.1 3.1 0 0 1 3.09-3.1h16.17a2.77 2.77 0 0 1 2.76 2.76v16.17a3.1 3.1 0 0 1-3.1 3.09zm-15.83-20a1.1 1.1 0 0 0-1.09 1.1v15.83a1.09 1.09 0 0 0 1.09 1.09h15.83a1.1 1.1 0 0 0 1.1-1.09v-16.2a.76.76 0 0 0-.76-.76z"/></g><g class="AG AI"><rect x="771.93" y="253.59" width="134.36" height="12.51" rx="3.06"/><rect x="771.93" y="278.62" width="84.44" height="12.51" rx="3.06"/></g><g opacity=".4" fill="#edf0f4"><rect x="771.93" y="330.38" width="134.36" height="12.51" rx="3.06"/><rect x="771.93" y="355.41" width="84.44" height="12.51" rx="3.06"/></g><g opacity=".5" class="AO"><rect x="771.93" y="177.7" width="134.36" height="12.51" rx="3.06"/><rect x="771.93" y="202.73" width="84.44" height="12.51" rx="3.06"/></g><g fill="#bed6ff"><rect x="771.93" y="101.81" width="134.36" height="12.51" rx="3.06"/><rect x="771.93" y="126.83" width="84.44" height="12.51" rx="3.06"/></g><g class="AL"><path d="M750.23 359.28H734.4a3.1 3.1 0 0 1-3.09-3.1v-15.82a3.1 3.1 0 0 1 3.09-3.1h15.83a3.1 3.1 0 0 1 3.1 3.1v15.82a3.1 3.1 0 0 1-3.1 3.1zm-15.83-20a1.09 1.09 0 0 0-1.09 1.1v15.82a1.09 1.09 0 0 0 1.09 1.1h15.83a1.1 1.1 0 0 0 1.1-1.1v-15.84a1.1 1.1 0 0 0-1.1-1.1z" fill="#edf0f4"/></g><path class="T AI" d="M359.63 202.7h-6.38a210.87 210.87 0 0 0-44.14 205.24h50.52a5.72 5.72 0 0 0 5.72-5.72V208.4a5.72 5.72 0 0 0-5.72-5.71z"/><g fill="#ade2b4"><path d="M419.97 162.296l-19.8 12.415-12.304-19.62 19.8-12.415zM547.4 138.5h-43.34v-33.7h43.34z"/></g><circle cx="521.75" cy="343.66" r="210.64" class="AP"/><circle cx="521.75" cy="343.04" r="188.34" class="AF"/><path d="M678 238.1c-33.7-53-92.6-83.4-157.07-83.4v188z" class="AQ"/><g fill="#00a5fd"><path d="M518.5 179.42h4.82v26.48h-4.82zm0 300.95h4.82v24.07h-4.82zM359.6 340.73h24.08v4.82H359.6zm298.54 0h26.48v4.82h-26.48z"/></g><g fill="#b2e4fe"><path d="M379.24 265.066l2.364-4.2 21.944 12.35-2.364 4.2zm260.32 146.58l2.365-4.2 21.94 12.353-2.365 4.2zm-199.553 70.69l12.348-21.933 4.2 2.365-12.348 21.933zM586.52 222.053l12.353-21.94 4.2 2.365-12.353 21.94zM437.736 203.86l4.16-2.433 12.703 21.73-4.16 2.433zm150.74 257.876l4.16-2.433 12.708 21.738-4.16 2.433zm-207.94-39.662l21.727-12.707 2.433 4.16-21.727 12.707zm257.84-150.746l21.736-12.712 2.433 4.16-21.736 12.712z"/></g><path d="M504.9 359.35a6 6 0 0 1-3.38-11l143.24-97a6 6 0 1 1 6.75 10l-143.24 97a5.94 5.94 0 0 1-3.37 1z" class="AN"/><path d="M521.54 353.33a10.92 10.92 0 1 1 10.92-10.92 10.93 10.93 0 0 1-10.92 10.92z" class="AF"/><path d="M521.54 336.3a6.11 6.11 0 1 1-6.1 6.1 6.11 6.11 0 0 1 6.1-6.1m0-9.63a15.74 15.74 0 1 0 15.74 15.73 15.75 15.75 0 0 0-15.74-15.73z" class="AN"/><g class="AP"><rect x="488.4" y="85.52" width="74.64" height="33.71" rx="9.26" transform="matrix(-1 0 0 -1 1051.44 204.75)"/><rect x="377" y="138.21" width="40.83" height="20.25" rx="6.27" transform="matrix(-.847215 .531251 -.531251 -.847215 812.92 62.86)"/></g><circle class="T AI" cx="711.24" cy="377.9" r="55"/><circle cx="722.38" cy="369.81" r="55" class="AG"/><g class="AF"><path d="M724.47 397.78c6.06.13 6.12-6.4 6.12-6.4h-6.12v6.4z"/><path d="M724.47 397.77v-6.38h-5.9s.23 6.25 5.9 6.38zm0-55.07h0a2.79 2.79 0 0 0-2.82 2.76 2.67 2.67 0 0 0 .38 1.38h-.38s-10.77.7-10.77 12.42c0 0-.43 16.05-11.24 25.68 0 0-1.9 2 1.87 3.68h23z"/><path d="M749.3 384.93c-10.82-9.63-11.24-25.68-11.24-25.68 0-11.7-10.78-12.42-10.78-12.42h-.38a2.67 2.67 0 0 0 .38-1.38 2.79 2.79 0 0 0-2.8-2.76v45.92h22.95c3.78-1.4 1.87-3.68 1.87-3.68zm-49.513-19.25l5.535-19.47 2.847.8-5.535 19.47zm40.128-18.75l2.847-.8 5.535 19.47-2.847.8z"/></g><g class="Y AI"><path d="M422.13 469.6S388.4 454.07 383 440.2c-1.46-10.66-1.88-26-5.93-36a15.72 15.72 0 0 0-3.26-6.18 6.62 6.62 0 0 0-2.17-1.63l-.5-.4a25.92 25.92 0 0 0 4-8.48c.43-2.32-.13-3.55.1-4.62.4-1.83.85-3.6 1.18-5.4 2.45-.74 3.57-1.58 3.9-2.26a4.34 4.34 0 0 1-3.21 1.21s9.37-7.52-.45-13.73c0 0 2.37 2.35 2.74 3.9 0 0-5.94-7.8-12.7-9.2-5.16-1.07-6.35-.55-9.43-.27s-6.85 2.07-9.3 3.37c-2 1.08-4.84 5.4-5 9.3s2.63 17.5 3.24 21.8c.2 1.32 2.45.8 3.58.46v.2c-3.4.46-3.33 2.36-3.18 3.62h0c-3 2.88-8 6.74-10.73 10.4-3.16 2.75-3.3 8.45-3.5 11.83-.14 2.6.56 7.32 1.65 12.62.36 3.87.8 6.95 1.15 10.1l.06.68a211.62 211.62 0 0 0 79.43 83.5l.43-18.66a120 120 0 0 0 11.43 21.68c1.22 1.85 2.47 3.63 3.74 5.36a209.35 209.35 0 0 0 56.12 17.89c2.3-12.6-3.6-32.65-16.38-52s-35.34-27.03-47.87-29.7zm-21.44-4.77l-10.5-2.7a4.72 4.72 0 0 0-1.87-.08l-4.66-3.15c0-.25 0-.5-.08-.76-.1-.94-.28-2.17-.5-3.58 6.63 3.82 12.7 4.85 18.4 7.28z"/></g><ellipse cx="418.61" cy="576.07" rx="72.15" ry="6.42" class="AI"/><ellipse cx="359.31" cy="569.14" rx="72.15" ry="28.17" class="AI"/><path d="M430.8 555.92l.1 13c.1 14.4-25.72 26.25-57.68 26.48s-58-11.25-58.07-25.64l-.1-13" class="AM"/><g class="AL AJ"><g clip-path="url(#A)"><path d="M429.2 604.2a.81.81 0 0 1-.81-.81l-.3-42.4a.8.8 0 0 1 .8-.81h0a.8.8 0 0 1 .81.8l.3 42.44a.82.82 0 0 1-.81.82zm-4.3.02a.82.82 0 0 1-.81-.81l-.3-42.4a.82.82 0 0 1 .81-.82.84.84 0 0 1 .82.81l.3 42.44a.82.82 0 0 1-.81.82zm-4.3 0a.81.81 0 0 1-.81-.8l-.3-42.42a.82.82 0 0 1 .81-.82.81.81 0 0 1 .82.8l.3 42.44a.8.8 0 0 1-.8.82zm-4.3.01a.81.81 0 0 1-.81-.81l-.3-42.42a.82.82 0 0 1 .8-.82h0a.81.81 0 0 1 .81.81l.3 42.44a.82.82 0 0 1-.81.82zm-4.3 0a.82.82 0 0 1-.82-.8l-.3-42.43a.82.82 0 0 1 1.63 0l.3 42.45a.81.81 0 0 1-.81.81zm-4.3.01a.81.81 0 0 1-.81-.81l-.3-42.43a.82.82 0 0 1 .81-.82h0a.82.82 0 0 1 .82.81l.3 42.44a.8.8 0 0 1-.8.82zm-4.3 0a.8.8 0 0 1-.81-.8l-.3-42.44a.81.81 0 1 1 1.62 0l.3 42.44a.81.81 0 0 1-.81.81zm-4.3.01a.82.82 0 0 1-.82-.81L398 561a.79.79 0 0 1 .8-.81.78.78 0 0 1 .82.8l.3 42.44a.82.82 0 0 1-.81.82zm-4.32.01a.81.81 0 0 1-.81-.81l-.3-42.45a.82.82 0 0 1 .81-.82h0a.82.82 0 0 1 .82.81l.3 42.44a.81.81 0 0 1-.8.82zm-4.3 0a.8.8 0 0 1-.81-.8l-.3-42.46a.81.81 0 0 1 .81-.81.78.78 0 0 1 .81.8l.3 42.44a.82.82 0 0 1-.81.82z"/><use xlink:href="#K"/><path d="M381.87 604.27a.81.81 0 0 1-.81-.8l-.3-42.47a.82.82 0 0 1 .81-.82h0a.82.82 0 0 1 .82.8l.3 42.45a.81.81 0 0 1-.81.81zm-4.3.01a.81.81 0 0 1-.81-.81l-.3-42.47a.82.82 0 0 1 .81-.82h0a.81.81 0 0 1 .81.81l.3 42.44a.81.81 0 0 1-.8.82z"/><use xlink:href="#L"/><path d="M369 604.3a.81.81 0 0 1-.81-.81l-.35-42.48a.81.81 0 0 1 .81-.81h0a.82.82 0 0 1 .81.8l.3 42.44a.82.82 0 0 1-.81.82z"/><use xlink:href="#M"/><path d="M360.36 604.3a.82.82 0 0 1-.82-.8l-.3-42.45a.8.8 0 0 1 .8-.81h0a.8.8 0 0 1 .81.8l.3 42.44a.82.82 0 0 1-.81.82z"/><use xlink:href="#N"/><path d="M351.75 604.3a.8.8 0 0 1-.81-.8l-.3-42.44a.82.82 0 0 1 .81-.82h0a.8.8 0 0 1 .81.8l.3 42.44a.8.8 0 0 1-.8.82zm-4.3.02a.82.82 0 0 1-.82-.81l-.3-42.44a.81.81 0 0 1 .8-.82.84.84 0 0 1 .82.81l.3 42.44a.82.82 0 0 1-.81.82zm-4.3 0a.81.81 0 0 1-.81-.8l-.33-42.44a.82.82 0 0 1 .81-.82h0a.81.81 0 0 1 .81.81l.3 42.44a.81.81 0 0 1-.81.81zm-4.3.01a.81.81 0 0 1-.81-.81l-.3-42.44a.81.81 0 0 1 .81-.81.84.84 0 0 1 .82.8l.3 42.44a.8.8 0 0 1-.8.82zm-4.3.01a.81.81 0 0 1-.81-.81l-.3-42.44a.8.8 0 0 1 .8-.82.81.81 0 0 1 .82.81l.3 42.44a.82.82 0 0 1-.81.82zm-4.3 0a.82.82 0 0 1-.81-.8l-.3-42.45a.81.81 0 0 1 .81-.81h0a.81.81 0 0 1 .81.8l.3 42.44a.82.82 0 0 1-.81.82zm-4.3.01a.81.81 0 0 1-.81-.81l-.3-42.44a.82.82 0 0 1 1.63 0l.3 42.44a.81.81 0 0 1-.8.82z"/><use xlink:href="#O"/><path d="M317.32 604.36a.82.82 0 0 1-.81-.81l-.3-42.44a.82.82 0 0 1 1.63 0l.3 42.44a.82.82 0 0 1-.81.82z"/></g></g><ellipse cx="372.94" cy="556.34" rx="57.87" ry="26.06" transform="matrix(.999973 -.00733 .00733 .999973 -4.03 2.72)" class="AJ"/><ellipse cx="374.33" cy="556.95" rx="44.5" ry="20.04" transform="matrix(.999973 -.00733 .00733 .999973 -4.03 2.73)" class="AR"/><g class="AM"><path d="M374.2 540.55c23.22-.17 42.33 7.7 44.44 17.9a8.58 8.58 0 0 0 .18-1.82c-.08-11.07-20.07-19.9-44.64-19.72s-44.44 9.3-44.36 20.36a9.22 9.22 0 0 0 .2 1.82c1.97-10.23 20.97-18.37 44.18-18.54z"/><path d="M420.93 536.15l.1 13c.1 14.4-25.72 26.25-57.7 26.47s-57.95-11.25-58.05-25.62l-.1-13"/></g><g class="AL AJ"><g clip-path="url(#B)"><path d="M419.32 584.45a.82.82 0 0 1-.82-.81l-.3-42.44a.81.81 0 0 1 .8-.82h0a.81.81 0 0 1 .81.81l.3 42.44a.82.82 0 0 1-.81.82zm-4.32 0a.81.81 0 0 1-.81-.8l-.3-42.44a.82.82 0 0 1 .81-.82h0a.82.82 0 0 1 .82.8l.3 42.44a.82.82 0 0 1-.81.82zm-4.3.01a.81.81 0 0 1-.81-.81l-.3-42.44a.82.82 0 0 1 .81-.82h0a.81.81 0 0 1 .81.81l.3 42.44a.82.82 0 0 1-.8.82z"/><use xlink:href="#P"/><path d="M402.1 584.47a.81.81 0 0 1-.81-.81l-.3-42.44a.82.82 0 0 1 .81-.82h0a.82.82 0 0 1 .81.81l.3 42.44a.82.82 0 0 1-.81.82zm-4.3 0a.8.8 0 0 1-.81-.8l-.3-42.45a.81.81 0 0 1 .81-.81h0a.8.8 0 0 1 .81.8l.3 42.44a.81.81 0 0 1-.8.82zm-4.3.01a.82.82 0 0 1-.82-.81l-.3-42.44a.8.8 0 0 1 .8-.82h0a.81.81 0 0 1 .81.81l.3 42.44a.82.82 0 0 1-.81.82zm-4.3 0a.81.81 0 0 1-.81-.81l-.3-42.44a.81.81 0 0 1 .81-.81h0a.82.82 0 0 1 .81.8l.3 42.44a.82.82 0 0 1-.81.82zm-4.3.02a.81.81 0 0 1-.81-.81l-.3-42.44a.82.82 0 0 1 .81-.82.84.84 0 0 1 .81.81l.3 42.44a.81.81 0 0 1-.8.82zm-4.3 0a.82.82 0 0 1-.82-.81l-.3-42.44a.79.79 0 0 1 .8-.81.8.8 0 0 1 .82.8l.3 42.44a.82.82 0 0 1-.81.82zm-4.32 0a.81.81 0 0 1-.81-.81l-.3-42.44a.82.82 0 0 1 .81-.82h0a.82.82 0 0 1 .81.81l.3 42.44a.82.82 0 0 1-.81.82z"/><use xlink:href="#Q"/><path d="M367.68 584.5a.82.82 0 0 1-.82-.8l-.3-42.44a.8.8 0 0 1 .8-.82h0a.81.81 0 0 1 .81.81l.3 42.44a.81.81 0 0 1-.81.81zm-4.3 0a.81.81 0 0 1-.81-.81l-.3-42.44a.82.82 0 0 1 .81-.82.84.84 0 0 1 .82.81l.3 42.44a.82.82 0 0 1-.81.82zm-4.3 0a.8.8 0 0 1-.81-.8l-.3-42.44a.82.82 0 0 1 1.63 0l.3 42.44a.8.8 0 0 1-.8.81zm-4.3.02a.81.81 0 0 1-.81-.81l-.3-42.44a.81.81 0 0 1 .8-.82h0a.81.81 0 0 1 .81.81l.3 42.44a.82.82 0 0 1-.81.82zm-4.3 0a.82.82 0 0 1-.81-.8l-.3-42.44a.82.82 0 0 1 .81-.82.81.81 0 0 1 .82.8l.3 42.45a.81.81 0 0 1-.81.81z"/><use xlink:href="#R"/><path d="M341.86 584.53a.8.8 0 0 1-.81-.8l-.3-42.44a.81.81 0 0 1 .8-.82h0a.8.8 0 0 1 .81.8l.3 42.44a.82.82 0 0 1-.81.82zm-4.3.01a.82.82 0 0 1-.81-.81l-.3-42.44a.82.82 0 0 1 .81-.82.79.79 0 0 1 .82.81l.3 42.44a.82.82 0 0 1-.81.82zm-4.3 0a.81.81 0 0 1-.81-.8l-.3-42.45a.81.81 0 0 1 .81-.81h0a.82.82 0 0 1 .82.8l.3 42.44a.8.8 0 0 1-.8.82zm-4.25.01a.81.81 0 0 1-.81-.81l-.3-42.44a.81.81 0 0 1 .8-.82.79.79 0 0 1 .82.81l.3 42.44a.82.82 0 0 1-.81.82zm-4.35 0a.82.82 0 0 1-.82-.81l-.3-42.44a.81.81 0 0 1 .81-.81h0a.81.81 0 0 1 .81.8l.3 42.44a.82.82 0 0 1-.81.82zm-4.3.01a.81.81 0 0 1-.81-.81l-.3-42.44a.82.82 0 0 1 .81-.82h0a.82.82 0 0 1 .82.81l.3 42.44a.81.81 0 0 1-.8.82zm-4.34 0a.81.81 0 0 1-.81-.81l-.3-42.44a.81.81 0 0 1 .8-.81h0a.8.8 0 0 1 .81.8l.3 42.44a.82.82 0 0 1-.81.82zm-4.26.01a.82.82 0 0 1-.82-.81l-.3-42.44a.82.82 0 0 1 .81-.82h0a.81.81 0 0 1 .81.81l.3 42.44a.82.82 0 0 1-.81.82z"/><use xlink:href="#S"/></g></g><ellipse cx="363.06" cy="536.56" rx="57.87" ry="26.06" transform="matrix(.999976 -.006981 .006981 .999976 -3.76 2.56)" class="AJ"/><ellipse cx="364.45" cy="537.17" rx="44.5" ry="20.04" transform="matrix(.999976 -.006981 .006981 .999976 -3.76 2.57)" class="AR"/><g class="AM"><path d="M364.33 520.77c23.22-.16 42.33 7.7 44.44 17.9a8.51 8.51 0 0 0 .18-1.82c-.08-11.07-20.06-19.9-44.64-19.73s-44.44 9.3-44.36 20.36a9.31 9.31 0 0 0 .2 1.82c1.97-10.23 20.97-18.37 44.18-18.54z"/><path d="M428.84 517.37l.1 13c.1 14.4-25.72 26.25-57.68 26.48s-58-11.25-58.06-25.64l-.1-13"/></g><g class="AL AJ"><g clip-path="url(#C)"><path d="M427.23 565.66a.81.81 0 0 1-.81-.8l-.3-42.44a.82.82 0 0 1 .81-.82.84.84 0 0 1 .82.81l.3 42.44a.8.8 0 0 1-.8.81zm-4.3.01a.81.81 0 0 1-.81-.81l-.3-42.44a.82.82 0 0 1 .8-.82h0a.81.81 0 0 1 .81.81l.3 42.44a.82.82 0 0 1-.81.82zm-4.3.01a.82.82 0 0 1-.81-.81l-.3-42.44a.82.82 0 0 1 .81-.82.83.83 0 0 1 .82.81l.3 42.44a.82.82 0 0 1-.81.82zm-4.3 0a.81.81 0 0 1-.81-.8l-.3-42.45a.81.81 0 0 1 .81-.81.79.79 0 0 1 .82.8l.3 42.44a.8.8 0 0 1-.8.82z"/><use xlink:href="#T"/><path d="M405.72 565.7a.82.82 0 0 1-.82-.8l-.3-42.44a.81.81 0 0 1 1.62 0l.3 42.44a.82.82 0 0 1-.81.82zm-4.32 0a.81.81 0 0 1-.81-.81l-.3-42.44a.82.82 0 0 1 .81-.82h0a.82.82 0 0 1 .82.81l.3 42.44a.8.8 0 0 1-.8.82zm-4.3 0a.8.8 0 0 1-.81-.8l-.3-42.44a.82.82 0 0 1 .81-.82.81.81 0 0 1 .81.81l.3 42.44a.81.81 0 0 1-.81.81zm-4.3 0a.82.82 0 0 1-.82-.81l-.3-42.44a.81.81 0 0 1 .8-.82.79.79 0 0 1 .82.81l.3 42.44a.82.82 0 0 1-.81.82zm-4.3.02a.81.81 0 0 1-.81-.81l-.3-42.44a.82.82 0 0 1 .81-.82h0a.82.82 0 0 1 .82.81l.3 42.44a.81.81 0 0 1-.8.82z"/><use xlink:href="#U"/><path d="M379.9 565.73a.82.82 0 0 1-.82-.81l-.3-42.44a.81.81 0 0 1 .8-.82h0a.81.81 0 0 1 .81.81l.3 42.44a.82.82 0 0 1-.81.82z"/><use xlink:href="#V"/><path d="M371.3 565.74a.81.81 0 0 1-.81-.81l-.3-42.44a.82.82 0 0 1 .81-.82h0a.81.81 0 0 1 .81.81l.3 42.44a.81.81 0 0 1-.8.82zm-4.3 0a.82.82 0 0 1-.82-.8l-.3-42.44a.8.8 0 0 1 .8-.82h0a.81.81 0 0 1 .81.81l.3 42.44a.81.81 0 0 1-.81.81zm-4.32.01a.81.81 0 0 1-.81-.81l-.3-42.44a.82.82 0 0 1 .81-.82h0a.82.82 0 0 1 .81.81l.3 42.44a.82.82 0 0 1-.81.82zm-4.3.01a.81.81 0 0 1-.81-.81l-.3-42.44a.82.82 0 0 1 .81-.82h0a.81.81 0 0 1 .81.81l.3 42.44a.81.81 0 0 1-.8.82z"/><use xlink:href="#W"/><path d="M349.77 565.77a.81.81 0 0 1-.77-.77l-.3-42.44a.82.82 0 0 1 1.63 0l.3 42.44a.82.82 0 0 1-.81.82zm-4.3 0a.8.8 0 0 1-.81-.8l-.3-42.44a.82.82 0 0 1 .81-.82h0a.82.82 0 0 1 .82.8l.3 42.44a.81.81 0 0 1-.8.82zm-4.3.01a.82.82 0 0 1-.82-.81l-.3-42.44a.81.81 0 0 1 .8-.82.83.83 0 0 1 .82.81L342 565a.82.82 0 0 1-.81.82zm-4.3 0a.81.81 0 0 1-.81-.8l-.3-42.44a.82.82 0 0 1 .81-.82h0a.81.81 0 0 1 .81.81l.3 42.44a.81.81 0 0 1-.81.81zm-4.3.02a.81.81 0 0 1-.81-.81l-.3-42.44a.82.82 0 0 1 .81-.82.85.85 0 0 1 .82.81l.3 42.44a.8.8 0 0 1-.8.82zm-4.3 0a.82.82 0 0 1-.82-.81l-.3-42.44a.81.81 0 0 1 .8-.82.8.8 0 0 1 .82.81l.3 42.44a.82.82 0 0 1-.81.82zm-4.26 0a.82.82 0 0 1-.81-.81l-.3-42.44a.81.81 0 0 1 .81-.81h0a.81.81 0 0 1 .81.8l.3 42.44a.82.82 0 0 1-.81.82zm-4.35 0a.81.81 0 0 1-.81-.81l-.3-42.44a.82.82 0 1 1 1.63 0l.3 42.44a.81.81 0 0 1-.8.82zm-4.3 0a.8.8 0 0 1-.81-.8l-.3-42.44a.81.81 0 0 1 .8-.82h0a.8.8 0 0 1 .81.8l.3 42.44a.82.82 0 0 1-.81.82z"/></g></g><ellipse cx="370.97" cy="517.79" rx="57.87" ry="26.06" transform="matrix(.999973 -.00733 .00733 .999973 -3.75 2.7)" class="AJ"/><ellipse cx="372.35" cy="518.4" rx="44.5" ry="20.04" transform="matrix(.999973 -.00733 .00733 .999973 -3.75 2.71)" class="AR"/><g class="AM"><path d="M372.24 502c23.2-.16 42.32 7.7 44.44 17.9a10.12 10.12 0 0 0 .18-1.82c-.08-11.07-20.07-19.9-44.65-19.72s-44.44 9.3-44.36 20.37a9.32 9.32 0 0 0 .21 1.82C330 510.32 349 502.17 372.24 502z"/><path d="M421.92 498.6l.1 13c.1 14.4-25.72 26.25-57.68 26.48s-58-11.24-58.06-25.64l-.1-13"/></g><g class="AL AJ"><g clip-path="url(#D)"><path d="M420.3 546.9a.81.81 0 0 1-.81-.81l-.3-42.44a.82.82 0 0 1 .81-.82h0a.82.82 0 0 1 .82.81l.3 42.44a.82.82 0 0 1-.81.82zm-4.3 0a.81.81 0 0 1-.81-.81l-.3-42.44a.81.81 0 0 1 .81-.81.77.77 0 0 1 .81.8l.3 42.44a.81.81 0 0 1-.8.82zm-4.3 0a.82.82 0 0 1-.82-.81l-.3-42.44a.81.81 0 0 1 .8-.82h0a.81.81 0 0 1 .81.81l.3 42.44a.82.82 0 0 1-.81.82zm-4.3 0a.81.81 0 0 1-.81-.8l-.3-42.44a.82.82 0 0 1 .81-.82h0a.82.82 0 0 1 .81.8l.3 42.44a.82.82 0 0 1-.81.82zm-4.3 0a.81.81 0 0 1-.81-.81l-.3-42.44a.82.82 0 0 1 .81-.82h0a.81.81 0 0 1 .81.81l.3 42.44a.81.81 0 0 1-.8.82zm-4.3 0a.82.82 0 0 1-.82-.8l-.3-42.44a.8.8 0 0 1 .8-.82h0a.81.81 0 0 1 .81.81l.3 42.44a.81.81 0 0 1-.81.81zm-4.3.02a.81.81 0 0 1-.81-.81l-.3-42.44a.82.82 0 0 1 .81-.82h0a.82.82 0 0 1 .81.81l.3 42.44a.82.82 0 0 1-.81.82zm-4.3.01a.81.81 0 0 1-.81-.81l-.3-42.44a.82.82 0 0 1 .81-.82h0a.82.82 0 0 1 .82.81l.3 42.44a.81.81 0 0 1-.8.82zm-4.3 0a.82.82 0 0 1-.82-.81l-.3-42.44a.8.8 0 0 1 .8-.81h0a.8.8 0 0 1 .81.8l.3 42.44a.82.82 0 0 1-.81.82zm-4.32.01a.81.81 0 0 1-.81-.81l-.3-42.44a.82.82 0 0 1 .81-.82h0a.81.81 0 0 1 .81.81l.3 42.44a.82.82 0 0 1-.81.82zm-4.3 0a.8.8 0 0 1-.81-.8l-.3-42.44a.82.82 0 0 1 .81-.82.86.86 0 0 1 .82.8l.3 42.44a.8.8 0 0 1-.8.82zM373 547a.81.81 0 0 1-.81-.81l-.3-42.44a.81.81 0 1 1 1.62 0l.3 42.44a.82.82 0 0 1-.81.82zm-4.33 0a.82.82 0 0 1-.81-.8l-.3-42.44a.82.82 0 0 1 .81-.82h0a.81.81 0 0 1 .81.81l.3 42.44a.81.81 0 0 1-.81.81zm-4.3 0a.81.81 0 0 1-.81-.81l-.3-42.44a.82.82 0 0 1 .81-.82.84.84 0 0 1 .82.81l.3 42.44a.8.8 0 0 1-.8.82zm-4.3 0a.81.81 0 0 1-.81-.81l-.26-42.47a.81.81 0 0 1 .8-.82h0a.81.81 0 0 1 .81.81l.3 42.44a.82.82 0 0 1-.81.82zm-4.3 0a.82.82 0 0 1-.81-.81l-.3-42.44a.82.82 0 0 1 1.63 0l.3 42.44a.82.82 0 0 1-.81.82zm-4.3 0a.81.81 0 0 1-.81-.81l-.3-42.44a.82.82 0 0 1 .81-.82.81.81 0 0 1 .82.81l.3 42.44a.81.81 0 0 1-.8.82zm-4.3 0a.8.8 0 0 1-.81-.8l-.35-42.46a.81.81 0 0 1 .8-.82h0a.8.8 0 0 1 .81.8l.3 42.44a.82.82 0 0 1-.81.82zm-4.3 0a.82.82 0 0 1-.81-.81l-.3-42.44a.82.82 0 0 1 .81-.82.81.81 0 0 1 .82.81l.3 42.44a.82.82 0 0 1-.81.82zm-4.3 0a.81.81 0 0 1-.81-.8l-.3-42.44a.82.82 0 0 1 .81-.82h0a.82.82 0 0 1 .82.81l.3 42.44a.8.8 0 0 1-.8.81zm-4.3 0a.81.81 0 0 1-.81-.81l-.3-42.44a.82.82 0 0 1 .81-.82h0a.81.81 0 0 1 .81.81l.3 42.44a.82.82 0 0 1-.81.82zm-4.25 0a.82.82 0 0 1-.82-.81l-.3-42.44a.8.8 0 0 1 .8-.82.78.78 0 0 1 .82.81l.3 42.44a.82.82 0 0 1-.81.82zm-4.36 0a.81.81 0 0 1-.81-.81l-.3-42.44a.81.81 0 0 1 .81-.81h0a.82.82 0 0 1 .82.8l.3 42.44a.8.8 0 0 1-.8.82zm-4.3 0a.81.81 0 0 1-.81-.81l-.3-42.44a.82.82 0 0 1 .78-.75h0a.81.81 0 0 1 .81.81l.3 42.44a.82.82 0 0 1-.81.82zm-4.34 0a.82.82 0 0 1-.82-.8l-.3-42.44a.8.8 0 0 1 .8-.82h0a.81.81 0 0 1 .81.8l.3 42.44a.82.82 0 0 1-.81.82zm-4.27 0a.81.81 0 0 1-.81-.81l-.3-42.44a.82.82 0 0 1 .81-.82h0a.82.82 0 0 1 .82.81l.3 42.44a.81.81 0 0 1-.8.82zm-4.3 0a.8.8 0 0 1-.81-.8l-.3-42.44a.82.82 0 0 1 .81-.82h0a.81.81 0 0 1 .81.81l.3 42.44a.81.81 0 0 1-.8.81z"/></g></g><ellipse cx="364.05" cy="499.01" rx="57.87" ry="26.06" transform="matrix(.999973 -.00733 .00733 .999973 -3.61 2.65)" class="AJ"/><ellipse cx="365.44" cy="499.62" rx="44.5" ry="20.04" transform="matrix(.999973 -.00733 .00733 .999973 -3.61 2.66)" fill="#ffde6d"/><g class="AM"><path d="M368.2 490.76a41.27 41.27 0 0 0-4.55-.44 24.55 24.55 0 0 0-5.1.26l-2.63-2.57-2.07.47c-.42.07-.8.26-.78.5a.53.53 0 0 0 .19.64l1.7 1.67a12.27 12.27 0 0 0-3.92 1.48 4.48 4.48 0 0 0-1.87 1.91 2.62 2.62 0 0 0 0 2.11 4.77 4.77 0 0 0 1.62 2.06 13.26 13.26 0 0 0 3.52 2 6.75 6.75 0 0 0 1.27.41 22 22 0 0 0 2.63.55 30.24 30.24 0 0 0 4.07.2c1.42 0 2.72-.16 4-.2l6.55 5.7a9 9 0 0 1-2.79.2c-.92 0-1.64-.1-2.4-.1s-1.4-.17-1.95-.12a3.35 3.35 0 0 0-1.36.07c-.37.07-.42.26-.65.32a.68.68 0 0 0-.21.44c0 .6.08 1.23.1 1.84a36.79 36.79 0 0 0 6.1.46 37.82 37.82 0 0 0 6.22-.52l3.26 2.66 2.1-.56c.48-.12.75-.28.75-.52a.59.59 0 0 0-.26-.64l-2.26-1.83a13.32 13.32 0 0 0 3.81-1.79 4.06 4.06 0 0 0 1.62-2.14 2.71 2.71 0 0 0-.37-2.26 6.22 6.22 0 0 0-2.2-2.27 12.82 12.82 0 0 0-3.37-1.64 2.19 2.19 0 0 1-.8-.22 14.12 14.12 0 0 0-3-.48 38 38 0 0 0-4-.08l-4.06.22-5.76-5.3a13.47 13.47 0 0 1 2-.1h3.2a5.51 5.51 0 0 0 1-.08 1.64 1.64 0 0 0 .63-.33c.15-.16.13-.3.15-.52l-.05-1.45zm-10.28 7.6a6.85 6.85 0 0 1-.73-.25 5.5 5.5 0 0 1-1.37-.77c-.34-.3-.66-.5-.7-.85a1.67 1.67 0 0 1 0-.86 2.5 2.5 0 0 1 .84-.86 6.88 6.88 0 0 1 1.81-.79l5.14 4.8a18.74 18.74 0 0 1-2.12 0 8 8 0 0 1-1.92-.2 3 3 0 0 1-.94-.21zm18.47 8.25l-5.95-5.14 2.13-.06a15.33 15.33 0 0 1 1.95.1 8.62 8.62 0 0 0 1.08.22l.64.18a5.44 5.44 0 0 1 1.38.71c1 .75 1.47 1.5 1.27 2.13s-1 1.28-2.5 1.86zm-11.07-23.38c23.2-.17 42.32 7.7 44.44 17.9a9.21 9.21 0 0 0 .18-1.82c-.08-11.07-20.07-19.9-44.65-19.72s-44.44 9.3-44.36 20.37a9.32 9.32 0 0 0 .21 1.82c1.97-10.23 20.96-18.38 44.18-18.54z"/><path d="M424.33,472.43l-10.85,7.17c-12,7.94-7.46,36,10.16,62.65s41.65,41.85,53.65,33.92L488.15,569"/></g><g class="AL AJ"><g clip-path="url(#E)"><path d="M385.8 501a.81.81 0 0 1-.45-1.49l35.4-23.4a.811.811 0 1 1 .9 1.35l-35.4 23.4a.82.82 0 0 1-.44.14zm2.4 3.6a.81.81 0 0 1-.45-1.49l35.4-23.4a.813.813 0 0 1 .89 1.36l-35.4 23.4a.84.84 0 0 1-.45.13zm2.4 3.6a.81.81 0 0 1-.45-1.49l35.4-23.4a.811.811 0 1 1 .9 1.35L391 508.05a.75.75 0 0 1-.41.14zm2.4 3.57a.8.8 0 0 1-.68-.37.81.81 0 0 1 .23-1.13l35.45-23.4a.813.813 0 0 1 .89 1.36l-35.4 23.4a.79.79 0 0 1-.48.14zm2.38 3.57a.84.84 0 0 1-.68-.36.82.82 0 0 1 .23-1.13l35.4-23.4a.82.82 0 0 1 1.13.23.83.83 0 0 1-.23 1.13l-35.4 23.4a.84.84 0 0 1-.45.13zm2.4 3.58a.81.81 0 0 1-.44-1.49l35.4-23.4a.811.811 0 1 1 .9 1.35l-35.4 23.4a.82.82 0 0 1-.45.14zm2.4 3.58a.81.81 0 0 1-.45-1.49l35.4-23.4a.824.824 0 0 1 .87 1.4l-35.4 23.4a.84.84 0 0 1-.43.09zm2.4 3.57a.81.81 0 0 1-.45-1.49l35.4-23.4a.811.811 0 1 1 .9 1.35l-35.4 23.4a.75.75 0 0 1-.44.14zm2.44 3.57a.79.79 0 0 1-.68-.36.81.81 0 0 1 .23-1.13l35.4-23.4a.813.813 0 0 1 .89 1.36l-35.4 23.4a.78.78 0 0 1-.44.13zm2.35 3.58a.84.84 0 0 1-.68-.36.82.82 0 0 1 .23-1.13l35.4-23.4a.813.813 0 0 1 .89 1.36l-35.4 23.4a.84.84 0 0 1-.45.13z"/><use xlink:href="#X"/><use xlink:href="#Y"/><path d="M414.53 544a.81.81 0 0 1-.45-1.49l35.4-23.4a.811.811 0 1 1 .9 1.35L415 543.8a.82.82 0 0 1-.47.19zm2.4 3.52a.79.79 0 0 1-.68-.36.81.81 0 0 1 .23-1.13l35.4-23.4a.83.83 0 0 1 1.13.23.82.82 0 0 1-.23 1.13l-35.4 23.4a.8.8 0 0 1-.44.13zm2.4 3.58a.84.84 0 0 1-.68-.36.82.82 0 0 1 .23-1.13l35.4-23.4a.813.813 0 0 1 .89 1.36L419.77 551a.84.84 0 0 1-.45.1zm2.38 3.58a.81.81 0 0 1-.45-1.49l35.4-23.4a.811.811 0 1 1 .9 1.35l-35.4 23.4a.82.82 0 0 1-.45.14zm2.4 3.57a.81.81 0 0 1-.45-1.49l35.4-23.4a.813.813 0 0 1 .89 1.36l-35.4 23.4a.78.78 0 0 1-.44.13zm2.4 3.58a.82.82 0 0 1-.68-.37.81.81 0 0 1 .23-1.12l35.4-23.4a.81.81 0 1 1 .89 1.35L427 561.7a.85.85 0 0 1-.5.14z"/><use xlink:href="#Z"/><path d="M431.3 569a.82.82 0 0 1-.68-.36.81.81 0 0 1 .23-1.13l35.4-23.4a.813.813 0 0 1 .89 1.36l-35.4 23.4a.78.78 0 0 1-.44.13zm2.38 3.56a.81.81 0 0 1-.45-1.49l35.4-23.4a.811.811 0 1 1 .9 1.35l-35.4 23.4a.82.82 0 0 1-.45.14zm2.4 3.57a.81.81 0 0 1-.45-1.49l35.37-23.4a.813.813 0 0 1 .89 1.36L436.52 576a.8.8 0 0 1-.44.13zm2.4 3.57a.82.82 0 0 1-.68-.37.81.81 0 0 1 .23-1.12l35.4-23.4a.81.81 0 1 1 .89 1.35l-35.4 23.4a.85.85 0 0 1-.45.14zm2.4 3.58a.78.78 0 0 1-.67-.36.81.81 0 0 1 .23-1.13l35.4-23.4a.83.83 0 0 1 1.13.23.82.82 0 0 1-.23 1.13l-35.4 23.4a.81.81 0 0 1-.45.13zm2.4 3.58a.81.81 0 0 1-.45-1.49L478.2 562a.81.81 0 1 1 .89 1.35l-35.4 23.38a.78.78 0 0 1-.44.13zm2.4 3.58a.81.81 0 0 1-.45-1.49l35.4-23.4a.811.811 0 1 1 .9 1.35l-35.4 23.4a.85.85 0 0 1-.45.14zM448 594a.81.81 0 0 1-.44-1.49l35.4-23.4a.82.82 0 1 1 .9 1.36l-35.4 23.4a.81.81 0 0 1-.45.13z"/></g></g><ellipse cx="456.24" cy="520.71" rx="26.06" ry="57.87" transform="matrix(.834271 -.551355 .551355 .834271 -211.48 337.84)" class="AJ"/><ellipse cx="454.96" cy="519.9" rx="20.04" ry="44.5" transform="matrix(.834271 -.551355 .551355 .834271 -211.25 337)" fill="#ffde6d"/><g class="AM"><path d="M454.4 513.9c3.5 5.17 2.92 9.42-1.1 11.43 5.74 2.63 12.85 6.27 19.84 10l-5.07 2.05c-5.78-3-12.3-6.36-19.24-9.6l-3.35-4.17 2.24-.9c3.62-1.46 4-4.06 2.24-6.95L441.8 519l-2.43-3 8-3.22a7.48 7.48 0 0 0-8.05-1.43l-2.78 1.12-3.47-4.32 16.88-6.8 2.43 3-6.1 2.46a16.68 16.68 0 0 1 5.69 4.08l4.3-1.73 2.44 3zm14.24-3.04c-12.8-19.37-30-30.85-39.63-26.93a9.26 9.26 0 0 1 1.41-1.16c9.23-6.1 27.7 5.57 41.26 26.08s17.05 42.07 7.8 48.17a8.93 8.93 0 0 1-1.62.85c7.4-7.34 3.57-27.65-9.23-47z"/></g><path d="M406.62 563c-.74 2.07-1.63 5.85-1.48 7.13.37 3 2.7 3.75 5.06 5.22 3.32 2.06 5.14 6.7 8.58 8.46s13.1 6.12 14.2.3c.6-3.24-3.45-8.23-5.6-9.92-2.3-1.82-3.14-5.1-5.4-7" class="AI"/><path d="M410.8 583.53c-2.3-1.82-3.14-5.1-5.4-6.95.92-2.64-4.45-38.77-3.1-66.2a15 15 0 0 0-3.84-10.81c-7.18-8-22.05-17-30.46-22.95l.55-11c-8.6.88-14.35.65-22-2.9-2.4 5.6.2 7.66.1 13.36-.1 6.07.36 12.68 4.84 17.3 4.18 4.3 33.22 22 33.27 22.7-1.75 30.85 4.5 51.06 5.24 56.27-.75 2.07-1.64 5.85-1.48 7.13.37 3 2.7 3.75 5.06 5.22 3.32 2.06 5.14 6.7 8.58 8.45s13.1 6.13 14.2.32c.64-3.22-3.42-8.2-5.57-9.9z" class="AI"/><path d="M419 469.92a4 4 0 0 0-.36-.17 1 1 0 0 1-1.37 1.27c-.54-.3-6.4-2.2-6.4-2.2s-3.2-1.57-2.62-2.72a6.44 6.44 0 0 1 3.76-3.19 6 6 0 0 1 4.43.49l1.87.9a1.05 1.05 0 0 1 .46 1.46l.17.07a1.15 1.15 0 0 1 .4.19l.27.14c.9.48.33 1.66-.5 1.7l.9.44c1.1.62.07 2.23-.98 1.6z" fill="#ffc9ab"/><g class="AG"><path d="M376.34 414.48a20.71 20.71 0 0 1 4.39-10.14c8.2 8 8.36 29.26 10.22 42.87 6.1 6.37 17.45 11.78 20.9 13.33a1.47 1.47 0 0 1 .82 1.64c-.5 2.65-1.37 4.2-3 6.76-8.1-3.5-16.83-4-26.95-13.62-.4-.38-1-.48-1.15-1-2.85-8.67-6.06-33.52-5.22-39.84zm30.98 146.88c3.44 2.8 9.86 1.35 10.1 1.6a124.16 124.16 0 0 0 11.38 9.47c2.14 1.7 5.5 3.95 4.88 7.2-1.08 5.8-10.37 4-13.87 2.24s-6.37-4.7-9.7-6.77c-2.36-1.47-4.7-2.23-5.06-5.22-.22-1.8 1.64-8.6 2.25-8.52z"/></g><g class="AF"><path d="M405.12 568.68c.45 2.86 2.75 3.64 5.1 5.1 3.37 2.1 6.34 5.12 9.84 6.9 3.24 1.64 11.3 3.27 13.6-.88-1.24 5.6-10.36 3.84-13.83 2.08s-6.37-4.7-9.7-6.77c-2.36-1.47-4.7-2.23-5.06-5.22a5.81 5.81 0 0 1 .05-1.2zm13.03-5.24c3 2.33 5.2 5.44 4.08 6.88-1.74 2.2-8.9-.75-13.08-5.72-2.95-3.52-1.68-5.3 1.2-4.92a18.33 18.33 0 0 1 7.8 3.76z"/></g><path d="M362.68 462.83c9.2 1.2 14.8.2 22.94-3.55-.15 2.86 3.76 5.06 3.76 5.06 8 5.65 21.84 14.1 29.36 21.77a17.28 17.28 0 0 1 4.89 12.95c-1.4 28-1.05 66.1-2 66.92-3.46 2.92-13.66-1.15-15.3-2.8 0 0-3.86-23.58-1.84-59 0-.07-38.46-17-41-26.34-1.44-5.35-1.15-6-1.05-11.6.02-1.15.1-2.25.23-3.42z" class="AN"/><path d="M391.48 570.6c3.44 2.8 9.86 1.35 10.1 1.6a124.16 124.16 0 0 0 11.41 9.47c2.14 1.7 5.5 4 4.9 7.2-1.1 5.8-10.38 4-13.88 2.24s-6.37-4.7-9.68-6.77c-2.37-1.47-4.7-2.23-5.07-5.22-.26-1.8 1.6-8.6 2.22-8.52z" class="AG"/><g class="AF"><path d="M389.28 577.92c.45 2.86 2.75 3.64 5.1 5.1 3.37 2.1 6.34 5.12 9.84 6.9 3.24 1.64 11.3 3.27 13.6-.88-1.24 5.6-10.36 3.84-13.83 2.08s-6.37-4.7-9.68-6.77c-2.37-1.47-4.7-2.23-5.07-5.22a5.81 5.81 0 0 1 .05-1.2zm13.54-5.08c3 2.33 5.2 5.45 4.08 6.9-1.74 2.2-8.9-.75-13.08-5.73-2.95-3.52-1.68-5.3 1.2-4.9a18.29 18.29 0 0 1 7.8 3.75z"/></g><path d="M352.52 460.1c7.62 3.55 13.37 3.78 22 2.9-.1 3.8-.54 11-.54 11 8.4 5.94 23.28 15 30.46 23a15 15 0 0 1 3.83 10.8c-1.4 28.13-1.24 67.8-2.24 68.65-3.46 2.92-13.48-1.56-15.1-3.2 0 0-3.88-23.93-1.86-59.36 0-.67-33-16.35-37.18-20.64-4.48-4.6-5-11.22-4.83-17.3.07-5.76 3.06-10.26 5.47-15.85z" fill="#113e5d"/><path d="M342.43 419.78c.58-4.4 1.7-6.15 5-9.22A101.63 101.63 0 0 1 358 401.8c1.22-.86 2.15-.12 3.58-.53 4.93-1.43 9.5-1.78 14.33 0 7.07 2.65 8.74 9.45 9.5 16.28.22.17 3.86 52.82 3.86 52.82-3.2 5.76-21.8 14.22-42.4 2.48-3.87-12.1-5.32-46.42-4.44-53.07z" class="AG"/><path d="M375.2 406.33c2 3.75 3.6 4.5 5.27 9s3.17 5.8 3.2 13.2 1.77 22.52 2.84 30.52l2.6 18.74c3.32-2.4 3.06-6.92 2.46-12.66s-4.33-21.78-4-28 .07-26.12-5.8-32.12c-2.78-2.84-3.26-1.26-6.07-2.55-.1 1.4-.36 2.7-.5 3.86z" fill="#80d2fe"/><path d="M375.2 406.4a5.22 5.22 0 0 1 3.25 4 5.59 5.59 0 0 0 .25-3.79 12 12 0 0 0-2.95-4.05l-.55 3.84z" class="AG"/><path d="M357.7 393.35c.88 2.25-.85 10.94-.24 13s8.6 8.43 14 6.5 3.34-9.1 3-14.12-16.76-5.37-16.76-5.37z" fill="#ffd4d4"/><path d="M367.17 408.78c1.15.06 1.2 4.13 3.82 12.2s3.8 31.95 2.42 40.55 2.14 18 2.14 18-26.57-1-29.3-4.12-2-14.9-2.57-22.28-1.72-12.35-2.23-23.32c-.32-6.68-1.06-10 1.18-14.5s9.35-9.62 12.65-13c3.47.75 2.3 3.12 5.35 4.85a19.64 19.64 0 0 0 6.55 1.62z" fill="#80d2fe"/><path d="M367.2 408.8c-3.3.82-2.43 4.35-4.24 5.08s-8.17-9-8.4-10.95c-.15-1.26-.2-3.16 3.2-3.62-.52 3.37 3.46 8.95 9.45 9.5z" class="AG"/><path d="M400.84 501.84l31.7-22.2a1 1 0 0 0-.32-1.78l-34-8.7a4.66 4.66 0 0 0-3.8.69l-29.82 20.9a1.07 1.07 0 0 0 .35 1.92z" fill="#fafafa"/><g fill="#e4e4e4"><path d="M387.43 486.85l12.54-8.8-10.27-2.7-12.54 8.8 10.27 2.7zm13.14 12.98l28.4-20.42-21.1-5.43L380 494.5l20.58 5.32z" opacity=".33"/></g><path d="M400.84 501.84L433 479.3a4.21 4.21 0 0 0 1.69-2.42l9.15-34.94a1.06 1.06 0 0 0-1.64-1.14L413.42 461a7.65 7.65 0 0 0-3 4.34z" fill="#e5e5e5"/><g clip-path="url(#F)"><path d="M421.14 475.16l-2.3.56-.14-6.23 2.67-.46-.22 6.13z" fill="#eb4444"/><path d="M423.27 477.57l-2.23.62.32-9.16 2.75-.47-.84 9z" fill="#ff8e00"/><path d="M425.38 476.98l-2.1.6 1-10.77 2.67-.4-1.57 10.58z" fill="#009264"/><path d="M429.76 474.78l-4.22 1.12 2.04-13.8 5.45-.54-3.27 13.22z" fill="#0e76bb"/></g><use xlink:href="#a" fill="#e9c2af"/><use xlink:href="#a" fill="#ffd4d4"/><g fill="#ffdede"><path d="M386.8 480.47l3.7 3.66a1.71 1.71 0 0 0 1.59.52h.14a.53.53 0 0 0 .23-.88l-1.28-1.3-1.73-2a6.9 6.9 0 0 1-.53-.68l-2.07-3a3 3 0 0 0-.51-.56l-1.4-1.2z"/><path d="M379.18 478c2.65 1.83 4 1.53 4 1.53a4.22 4.22 0 0 1 .64.62 2 2 0 0 0 .7.46l1.83 2.53a1.7 1.7 0 0 0 1.23.7h.24a.39.39 0 0 0 .11-.06h0l.05-.07a.05.05 0 0 0 0 0l.56.9a1.88 1.88 0 0 0 1.48.66h.12a.46.46 0 0 0 .3-.72l-3.5-6.94a4.37 4.37 0 0 0-.52-.82l-.93-1.2-.48-.6h-.05c-.1-.1-2.68-3.5-4.82-4.36a21.65 21.65 0 0 0-2.93-1.3l-4-2.63.47 5.37-.07 1.14c.44.68 2.73 1 3.33 1.77s.9 2.1 2.25 3z"/></g><path class="y" d="M387.7 480.9a42.61 42.61 0 0 0-2.92-3.23 21.11 21.11 0 0 1 1.68 2.38l1.54 3.06a.53.53 0 0 1 0 .57l.56.9.16.17c.9-.74-.64-3.22-1.02-3.85z" opacity=".2" fill="#e9c2af"/><path d="M340.35 425.17c.25-4.44.4-12.93 7.48-13.38 10.67 1.67 7.34 27.1 9.2 40.73 7.23 7.56 19.66 15.86 19.66 15.86-.45 3.43-1.33 5-3.15 8-8.1-3.5-14.6-6.1-24.7-15.72-.4-.38-1-.48-1.16-1-2.88-8.66-7.68-28.12-7.33-34.5z" class="AG"/><path d="M384.28 379.67a4.93 4.93 0 0 1 .46 2.59 68.22 68.22 0 0 1-1.51 7.66c-.23 1.07.33 2.3-.1 4.62s-4.8 13.55-11.48 12.87-10-5.52-11.43-7.5a85.59 85.59 0 0 1-4.39-8.59 91.1 91.1 0 0 0 1.56-11.66c0-3.9 9.68-14.7 23.6-3.9a11.25 11.25 0 0 1 3.3 3.93z" fill="#ffdede"/><path d="M364.9 391.9l1.24-9.84a2.53 2.53 0 0 1 3.91-1.84l1.8 1.17c2.26 1.44 9.86 3.9 12.42 3.16s3.7-1.6 4-2.3a4.34 4.34 0 0 1-3.21 1.21s9.37-7.52-.45-13.73c0 0 2.37 2.35 2.74 3.9 0 0-5.94-7.8-12.7-9.2-5.16-1.07-6.35-.55-9.43-.27s-6.85 2.07-9.3 3.37c-2 1.08-4.84 5.4-5 9.3s2.63 17.5 3.24 21.8c.25 1.76 4.2.25 4.2.25a14.59 14.59 0 0 0 .51-4.46c-.22-1.2-.76-1.26-.76-2.1 0-3.84.34-7 2.27-6.23 2.55 1 3.36 2.75 2.13 5.82" fill="#42210b"/><path class="T AI" d="M199.94 407.9h1.17l-.73-1.66.63-2.33h5.73l-1.78 4h5.68l2.23-4h10.5l-1.88 4h1.1l1.45-3.08 1.38 3.08h1.1l-1.9-4.28 1.56-3.3a7.22 7.22 0 0 0-6.53-10.3h-6.54l-2.8-6.34a.31.31 0 0 0 0-.19l-.08-.4a.33.33 0 0 0-.11-.19h0l.1-10.05a59.85 59.85 0 0 1 1.05-8.39c.3-.75 4.5-8.08 4.63-8.85a1.78 1.78 0 0 0-.15-.17 7.83 7.83 0 0 0 .95-2c.13-1.23-4.2-9.6-5.3-11.24l-.32-2.73c-.05-.1-.27-.85-.4-1.13L224.5 335a6.94 6.94 0 0 0 5.1-8.39l-7.6-31.34a7 7 0 0 0-8.39-5.1l-9.33 2.28a9.64 9.64 0 0 0-11.12-5.45 9.67 9.67 0 0 0-7.35 9.92l-9.33 2.27a7 7 0 0 0-5.1 8.39L179 339a6.85 6.85 0 0 0 1.69 3.11c-.06.44-.05.84-.08.95a11.07 11.07 0 0 0 0 1.29c0 .12.4 1.56.7 2.8.3 1.43.66 4.9.87 5.9a16.18 16.18 0 0 0 1.17 3.85 26.41 26.41 0 0 0 4.8 3 2.21 2.21 0 0 0 .07.46s5.26 3.5 5.93 4.7a53.56 53.56 0 0 1 1.64 5.16c.33 1.38.7 10.6.7 12.57a2.09 2.09 0 0 1 0 .24 2.12 2.12 0 0 0-.14.52v.42a.35.35 0 0 0 .14.35c-.2 5.38-.8 19.33-2 23.13 0 .13-.1.3-.13.44h5.53zm15.72-11.73c-.2-.68-1.1-2.8-2.1-5.12h6.1a6.21 6.21 0 0 1 5.62 8.87l-1.4 3H213.5c.2-.33.37-.58.5-.74 1.53-2.02 2.28-4.02 1.67-6zm-8.46 6.72h-5.9l.92-3.34c.3-1.07 1.23-3.6 2.17-6.08a8.09 8.09 0 0 1 1-.9c1.8 2.3 3.25 4.4 3.47 5.43.13.44-.63 2.44-1.67 4.9zm-23.7-59l-.15.5s0-.12-.05-.56zm12.14 13.36c-.66.12-6.65-1.74-6.65-1.74s-.05.13-.12.35a18.57 18.57 0 0 1-3.48-2.39c-.1-.26-1.85-4.7-2.2-6.23l1-3.15a7 7 0 0 0 3.21 0l20.87-5.1a4 4 0 0 0 .1.65 5.93 5.93 0 0 0 .23.9l-.8-.8s-1-.9-1-.12l3 3.5 2.83 8.4a2.52 2.52 0 0 1-.38 1.42 3.73 3.73 0 0 0-.44-.14s-2.2 2.74-3 2.92a26.12 26.12 0 0 1-2.76.35l-.6-.56a4.35 4.35 0 0 1 .15-.82 2.38 2.38 0 0 0 .87-1.69 6.24 6.24 0 0 0-.05-3.35 7.58 7.58 0 0 1-.42-.86c-.23-.88-.53-2.38-.53-2.38v-.06c.14-.3 1.24-2.33-.87-2.84a8 8 0 0 0-3.61.45 4.48 4.48 0 0 0-1.87 1.15c-1.95-.05-2 1.68-2.13 2.52a15.7 15.7 0 0 0 1.2 4.32l1.68 3.1a1 1 0 0 0 .48.3v.47h-.1l-.56.6h-.18l-3.87.76z"/><rect x="182.05" y="288.1" width="52.05" height="46.16" rx="6.94" transform="matrix(.971549 -.236838 .236838 .971549 -67.77 58.13)" class="AS"/><g class="AF"><path d="M205.77 321.18a2 2 0 0 1-1.12-.34l-7.55-5.1a2.002 2.002 0 1 1 2.24-3.32l5.8 3.92 9.5-15.66a2.001 2.001 0 0 1 3.42 2.08l-10.58 17.44a2 2 0 0 1-1.28.92 2.1 2.1 0 0 1-.43.05zm-12.9-22.24a2 2 0 0 1-.47-3.94l22.14-5.4a2.001 2.001 0 0 1 .94 3.89l-22.13 5.4a2 2 0 0 1-.48.06z"/></g><path d="M210.46,288.65a7.65,7.65,0,1,0-14.86,3.62,7.51,7.51,0,0,0,2,3.52l12.73-3.1a7.56,7.56,0,0,0,.14-4" class="AS"/><path d="M197.6 297.8a2 2 0 0 1-1.43-.6 9.5 9.5 0 0 1-2.5-4.44 9.65 9.65 0 1 1 18.75-4.58h0a9.63 9.63 0 0 1-.18 5.1 2 2 0 0 1-1.44 1.35l-12.73 3.1a2.59 2.59 0 0 1-.47.06zm5.44-13a5.65 5.65 0 0 0-5.49 7 5.5 5.5 0 0 0 .78 1.75l10.3-2.54a5.39 5.39 0 0 0-.11-1.92 5.66 5.66 0 0 0-5.52-4.27z" class="AF"/><ellipse cx="213.5" cy="471.28" rx="55.89" ry="1.5" fill="#f2f2f2"/><g stroke="#000" class="AK AT"><path d="M197.25,470.66l36.08-76.46a6.72,6.72,0,0,0-6.08-9.59h-9.63a8.29,8.29,0,0,0-7.5,4.75L172.3,469.3"/><g stroke-linecap="round" stroke-width="3"><path d="M197.32 470.65l1.48-3.3m-26.53 1.95l1.5-3.3"/></g><path d="M238.76,470.74l-32.33-72.46a.56.56,0,0,1,.51-.78h24.64l32.68,73.24"/></g><ellipse cx="264.14" cy="470.91" rx="3.13" ry=".62"/><ellipse cx="238.64" cy="470.91" rx="3.13" ry=".62"/><g stroke="#000" class="AK AT"><path d="M179.13 455.72h25.5m-12.07-29.12h25.5m-18.68-14.58h25.5m-18.8-14.56h25.5m-46.25 43.7h25.5"/></g><path d="M206.24 425.7a1.17 1.17 0 0 0-.36-.93c-.47-.47-2.44-.63-3.24-1.1a7.14 7.14 0 0 1-1.64-1.52 9.05 9.05 0 0 1-2.7-.11 18.65 18.65 0 0 0-.59 3.94c1.46.12 7.95.54 8.53-.3z" class="AG"/><g class="AS"><path d="M197.7 426a.49.49 0 0 0 .07.24c.36.57 2 .33 5.3.36 1.83 0 3.08-.44 3.15-.9-.58.82-7.07.4-8.53.3zm11.3-15.15a.67.67 0 0 0 0 .32c.12.4.77.6 2 .9l.38.1.4.1 2.3.63c2.63.8 3.65.6 4 .24-2.7.2-8.58-2.1-9.06-2.3z"/></g><path d="M218 413.14a.67.67 0 0 0 .06-.79c-.33-.6-3.1-1.72-3.76-2.38a7.31 7.31 0 0 1-1.18-1.89 13.67 13.67 0 0 1-2.58-.82 20.36 20.36 0 0 0-1.59 3.59c.53.2 6.4 2.5 9.05 2.3z" class="AG"/><g class="AN"><path d="M204.15 376.27s-.6 20.54-2 25.28-4.2 20.72-3.92 20.77 4.66 1 4.2.43 6.75-26.7 7.43-29.13 4.58-12.3 4.58-12.3 1.53-2.47 0-4.22-10.28-.83-10.28-.83z"/><path d="M217.9 377.76s4.83 10.76 5.35 12.47c.6 2-.14 4-1.67 6-1.15 1.5-7 12.5-7 12.5l-5-.46s7.16-14.9 6.88-16.2c-.64-3-11.73-15-11.73-15z"/></g><g fill="#fbcecd"><path d="M205.92 351.52l-2.67.25c-.6.1-5-1.38-5.82-1.47s-4.33-2.5-4.45-2.78a59.52 59.52 0 0 1-2.23-6.53c-.1-1.1-2-.54-1.82.23.3 1.43.67 4.9.88 5.9A15.88 15.88 0 0 0 191 351a24.61 24.61 0 0 0 6.59 3.75 26.39 26.39 0 0 1 5.43 2.54h15.26s6-8.47 6.1-9.75-4.6-10.37-5.44-11.43-1.62.92-1.62.92l2.88 8.57c.34 1.07-3 5.74-3.9 5.75s-1.46 1.68-2.5 1.64-3.9.1-3.9.1z"/><path d="M217.4 337.25l-3-3.58c0-.77 1 .12 1 .12l.8.8a4.5 4.5 0 0 1-.23-.91 5.43 5.43 0 0 1-.13-1.08c0-.47 0-1.8.85-2s1.44 1.53 1.57 1.72a10 10 0 0 1 .46 1.21c.05.1.18 1.7.35 3m-24.87-1.6h0zm-3.1 3l-.15.5a8.89 8.89 0 0 0-.1-.93 6.09 6.09 0 0 0-.27-1.05c-.14-.45-.64-1.7-1.5-1.53s-.8 1.93-.86 2.16a11.06 11.06 0 0 0 0 1.29c0 .13.44 1.65.73 2.92h1.83l1-3.23zm22.07 10.75a3.18 3.18 0 0 0 0 2.05c.4.85-5.25.34-5.25.34a6 6 0 0 0-.48-3.21c-.74-1.45 5.73.82 5.73.82z"/></g><path d="M204.1 378.44c.77.43 7.72 1.57 13.56-.46a.36.36 0 0 0 .27-.4l-.07-.4a.34.34 0 0 0-.35-.28l-13.32.16c-.14 0-.17.44-.2.6v.4a.34.34 0 0 0 .12.38z"/><g class="AG"><path d="M201.78 359.15c.23.4 1.4 4.14 1.64 5.17.36 1.5.75 12.3.7 12.9s9.86 1.35 13.65-.26l.1-10a59.82 59.82 0 0 1 1-8.4c.3-.74 4.5-8.08 4.63-8.85 0 0-2-2.35-4.2-2.8 0 0-2.2 2.75-3 2.93a82.35 82.35 0 0 1-9.25.8l-3.88.7c-.66.13-6.65-1.74-6.65-1.74s-1.16 3.34-.74 4.9c.07-.04 5.32 3.52 6 4.67z"/><path d="M214.37 350.84l-1.43-1.3-5.08.46-1.08 1.17s4.47 1.05 7.6-.32z"/></g><path d="M213.55 342.87l-.53-2.38a.28.28 0 0 1 0-.06c-.62-.46-1.62-.7-3.3-.28a2.16 2.16 0 0 0-1.82 2c0 .6-.3 3.1.68 4.5a4.55 4.55 0 0 0 4.08 2.31c.93 0 1.2-1.08 1.34-1.82a6.19 6.19 0 0 0-.06-3.36c-.08-.34-.3-.6-.38-.9z" fill="#fbcecd"/><path d="M212.36 344.72c-.6-.85-1.06-1.2-.6-1.65s.9.94.9.94.18-.26.15-.32a7.2 7.2 0 0 1-.75-2.4c.12-.4.62-.7 1-.86.14-.32 1.24-2.34-.87-2.84a7.73 7.73 0 0 0-3.62.52 4.48 4.48 0 0 0-1.87 1.15c-2-.06-2 1.67-2.13 2.5a15.7 15.7 0 0 0 1.2 4.32l1.68 3.1a1.45 1.45 0 0 0 .72.39 4.28 4.28 0 0 0 1.89.09 9.94 9.94 0 0 0 1.79-.48 12.47 12.47 0 0 0 .49-2.62c-.05-.52.3-1.46.02-1.86z"/></g></g></svg>