<svg xmlns="http://www.w3.org/2000/svg" xmlns:xlink="http://www.w3.org/1999/xlink" viewBox="0 0 540 500"><defs><style>.cls-1{isolation:isolate;}.cls-2,.cls-6{mix-blend-mode:multiply;}.cls-2{fill:url(#linear-gradient);}.cls-3{fill:#80d2fe;}.cls-4{fill:#fff;}.cls-5{fill:#98dba1;}.cls-6{fill:url(#linear-gradient-2);}.cls-7{fill:#9eecea;}.cls-8{fill:#f99;}.cls-9{fill:#fcc980;}.cls-10{opacity:0.2;}.cls-11{fill:#92bbff;}.cls-12{fill:#b1f0ef;}.cls-13{fill:#fdd499;}.cls-14{fill:#ff8080;}</style><linearGradient id="linear-gradient" x1="166.93" y1="265.16" x2="47.84" y2="265.16" gradientUnits="userSpaceOnUse"><stop offset="0.07" stop-color="#dbe1e9" stop-opacity="0.7"/><stop offset="0.2" stop-color="#dbe1e9" stop-opacity="0.68"/><stop offset="0.35" stop-color="#dbe1e9" stop-opacity="0.62"/><stop offset="0.5" stop-color="#dbe1e9" stop-opacity="0.53"/><stop offset="0.66" stop-color="#dbe1e9" stop-opacity="0.4"/><stop offset="0.82" stop-color="#dbe1e9" stop-opacity="0.22"/><stop offset="0.99" stop-color="#dbe1e9" stop-opacity="0.02"/><stop offset="1" stop-color="#dbe1e9" stop-opacity="0"/></linearGradient><linearGradient id="linear-gradient-2" x1="312.36" y1="442.96" x2="137.13" y2="442.96" xlink:href="#linear-gradient"/></defs><title>File transfer</title><g class="cls-1"><g id="Layer_1" data-name="Layer 1"><path class="cls-2" d="M222.37,278.62H99a40.12,40.12,0,0,1-10.1-1.56L13.83,253.27c-2.72-.86-2.6-1.56.26-1.56H137.45a40.12,40.12,0,0,1,10.1,1.56l75.08,23.79C225.35,277.92,225.23,278.62,222.37,278.62Z"/><path class="cls-3" d="M162.31,176.82l-12.12-10.93a5.22,5.22,0,0,0-3.51-1.35H101.54a5.24,5.24,0,0,0-5.25,5.24v95.49a5.25,5.25,0,0,0,5.25,5.24H213.88a5.25,5.25,0,0,0,5.25-5.24V183.41a5.24,5.24,0,0,0-5.25-5.24H165.82A5.27,5.27,0,0,1,162.31,176.82Z"/><rect class="cls-4" x="107.56" y="187.5" width="100.31" height="83.02"/><path class="cls-5" d="M214.77,278.62H100.65a5.07,5.07,0,0,1-5-4.3L86,210.84A5.07,5.07,0,0,1,91,205H224.4a5.06,5.06,0,0,1,5,5.83l-9.62,63.48A5.06,5.06,0,0,1,214.77,278.62Z"/><path class="cls-6" d="M394,462.76H212.43a58.87,58.87,0,0,1-14.87-2.3l-110.48-35c-4-1.26-3.83-2.29.38-2.29H269a59.24,59.24,0,0,1,14.86,2.29l110.48,35C398.33,461.73,398.16,462.76,394,462.76Z"/><path class="cls-7" d="M319.89,286.93,299,268.06a9.08,9.08,0,0,0-6.07-2.33h-78a9.06,9.06,0,0,0-9.06,9.06v164.9a9.06,9.06,0,0,0,9.06,9.06H409a9.06,9.06,0,0,0,9.06-9.06V298.32a9.06,9.06,0,0,0-9.06-9.05H326A9.09,9.09,0,0,1,319.89,286.93Z"/><rect class="cls-4" x="225.33" y="305.38" width="173.24" height="143.37"/><path class="cls-7" d="M410.51,462.76H213.4a8.74,8.74,0,0,1-8.64-7.44L188.14,345.69a8.74,8.74,0,0,1,8.64-10.05H427.12a8.74,8.74,0,0,1,8.65,10.05L419.15,455.32A8.74,8.74,0,0,1,410.51,462.76Z"/><path class="cls-8" d="M302.66,23.54S332.8,39.74,357.34,25c0,0,6.88,24.79,35.43,33.74C392.77,58.76,340,83.45,302.66,23.54Z"/><path class="cls-5" d="M320.32,270.56l45.11,40.31s23.21-8.5,39-25.82S424,246.46,424,246.46l-45.11-40.31a85.39,85.39,0,0,1-20.23,39.26A96.63,96.63,0,0,1,320.32,270.56Z"/><path class="cls-3" d="M244.7,59.51,217.9,76.45S206.63,70.05,200,59.74a45.53,45.53,0,0,1-6.8-21.65L220,21.15A44.76,44.76,0,0,0,227,43.2,50.68,50.68,0,0,0,244.7,59.51Z"/><path class="cls-7" d="M401.38,162.47s13.09-18,16.22-50.17H473s-3.14,36-16.21,50.17S401.38,162.47,401.38,162.47Z"/><path class="cls-9" d="M450.64,166.55s-16.83,1.63-16.83-19.74H382.57s-1.36,14.88,12,19.57C425.12,177.07,450.64,166.55,450.64,166.55Z"/><path class="cls-9" d="M165.53,110.42s-1.71,10.82-11.81,23.1L173,152.8s11.43-13.62,11.81-23.09S165.53,110.42,165.53,110.42Z"/><path class="cls-5" d="M184.09,126.14s-5.29-6.42-12.72,1l-17.83-17.83s4.7-5.65,11-2.62A41.85,41.85,0,0,1,184.09,126.14Z"/><path class="cls-8" d="M287.15,166c0-2.48-.12-5-.12-7.45-6.2,4.69-11.94,9.6-18.34,14.27,7.84,0,10.24,0,19.37,0s25-.11,35.37-.06c.16-2.3-.15-4.59-.14-6.88Q305.2,165.89,287.15,166Z"/><path class="cls-8" d="M323.79,178c-8.18,0-12.39-.11-21.51-.07s-23.16.09-33.22.07c-.12,2.28,0,4.57-.06,6.85,11.38,0,22.76,0,34.14-.06q.15,3.75.25,7.49C310.06,187.26,316.87,182.76,323.79,178Z"/><g class="cls-10"><circle class="cls-5" cx="334.78" cy="130.13" r="16.72"/><circle class="cls-5" cx="375.59" cy="485.19" r="11.22"/><circle class="cls-3" cx="87.72" cy="400.06" r="23.4"/><circle class="cls-11" cx="513.84" cy="193.97" r="15.53"/><circle class="cls-5" cx="457.56" cy="303.71" r="14.19"/><circle class="cls-12" cx="124.12" cy="135.88" r="10.45"/><circle class="cls-11" cx="130.02" cy="35.86" r="10.45"/><circle class="cls-13" cx="37.8" cy="182.79" r="16.32"/><circle class="cls-13" cx="494.78" cy="428.19" r="15.37"/><circle class="cls-14" cx="122.86" cy="315.29" r="11.43"/><circle class="cls-14" cx="458.43" cy="42.49" r="9.8"/><circle class="cls-12" cx="261.54" cy="26.47" r="15.01"/></g></g></g></svg>