<svg xmlns="http://www.w3.org/2000/svg" width="172" height="208" viewBox="0 0 172 208">
  <g fill="none" fill-rule="evenodd" opacity=".5" transform="translate(2 2)">
    <path stroke="#B6C1C8" stroke-dasharray="10 10" stroke-linecap="round" stroke-linejoin="bevel" stroke-width="3" d="M129.443986,3.10865491e-08 L168.277181,42.5 C168.277181,42.5 165.361985,185.866667 165.361985,204 L-2.39256226e-07,204 L-2.39256226e-07,3.10865491e-08 C18.8985124,3.10865491e-08 129.443986,3.10865491e-08 129.443986,3.10865491e-08 L168.277181,42.5 L129.443986,42.5 L129.443986,3.10865491e-08 Z"/>
    <path fill="#F4F4F4" d="M-2.39256226e-07,3.10865207e-08 L-2.39256226e-07,204 L165.361985,204 C165.361985,185.866667 168.277181,42.5 168.277181,42.5 L129.443986,3.10865207e-08 C129.443986,3.10865207e-08 18.8985124,3.10865207e-08 -2.39256226e-07,3.10865207e-08 Z"/>
    <path d="M-2.39256226e-07,3.10865207e-08 L-2.39256226e-07,204 L165.361985,204 C165.361985,185.866667 168.277181,42.5 168.277181,42.5 L129.443986,3.10865207e-08 C129.443986,3.10865207e-08 18.8985124,3.10865207e-08 -2.39256226e-07,3.10865207e-08 Z"/>
    <rect width="129.444" height="32.47" x="12.944" y="18.53"/>
    <rect width="129.444" height="4.08" x="17.66" y="70.04" fill="#D8D8D8" fill-rule="nonzero"/>
    <rect width="104.475" height="4.08" x="17.66" y="97.24" fill="#D8D8D8" fill-rule="nonzero"/>
    <rect width="76.221" height="4.08" x="17.66" y="124.44" fill="#D8D8D8" fill-rule="nonzero"/>
    <rect width="129.444" height="4.08" x="17.66" y="153" fill="#D8D8D8" fill-rule="nonzero"/>
    <rect width="104.475" height="4.08" x="17.66" y="182.24" fill="#D8D8D8" fill-rule="nonzero"/>
    <polygon fill="#B6B6B6" fill-rule="nonzero" points="129.444 42.5 129.444 0 168.277 42.5"/>
  </g>
</svg>
