<svg id="Layer_1" data-name="Layer 1" xmlns="http://www.w3.org/2000/svg" viewBox="0 0 690 500"><defs><style>.cls-1{opacity:0.2;}.cls-2{fill:#98dba1;}.cls-3{fill:#80d2fe;}.cls-4{fill:#92bbff;}.cls-5{fill:#b1f0ef;}.cls-6{fill:#fdd499;}.cls-7{fill:#ff8080;}.cls-8{fill:#9eecea;}.cls-9{fill:#fff;}.cls-10{opacity:0.05;}.cls-11{fill:#c1e9c7;}</style></defs><g class="cls-1"><circle class="cls-2" cx="282.73" cy="41.07" r="23.08" transform="translate(195.13 313.01) rotate(-80.41)"/><circle class="cls-2" cx="433.15" cy="466.52" r="15.49"/><circle class="cls-3" cx="147.27" cy="440.49" r="32.3"/><circle class="cls-4" cx="591.65" cy="184.5" r="21.43"/><circle class="cls-4" cx="564.94" cy="401.21" r="19.59" transform="translate(78.42 894.59) rotate(-80.78)"/><circle class="cls-5" cx="214.55" cy="204.43" r="14.42"/><circle class="cls-4" cx="180.31" cy="105.68" r="14.42"/><circle class="cls-6" cx="99.44" cy="246.82" r="22.52"/><circle class="cls-6" cx="512.08" cy="228.53" r="21.21" transform="translate(204.47 697.39) rotate(-80.78)"/><circle class="cls-7" cx="167.95" cy="307.02" r="15.78"/><circle class="cls-7" cx="534.22" cy="87.77" r="13.53" transform="matrix(0.16, -0.99, 0.99, 0.16, 362.01, 601.03)"/><circle class="cls-5" cx="404.06" cy="93.38" r="20.71"/></g><path class="cls-8" d="M495.83,250.24c0,.66,0,1.32,0,2,0,2-.08,3.94-.18,5.9A153.19,153.19,0,0,1,397.13,393.4l-1.76.66q-2.64,1-5.32,1.84l-1.79.57q-5.4,1.66-10.95,3l-3.72.81q-4.68,1-9.45,1.62l-1.91.26c-1.28.16-2.56.31-3.85.44-.64.06-1.28.13-1.93.18-1.29.12-2.59.22-3.89.3-3.25.2-6.53.31-9.83.31s-6.58-.11-9.83-.31c-1.3-.08-2.6-.18-3.89-.3-.65-.05-1.29-.12-1.93-.18-1.29-.13-2.57-.28-3.85-.44l-1.91-.26q-4.77-.66-9.45-1.62l-3.72-.81q-5.55-1.29-10.95-3l-1.79-.57q-2.69-.88-5.32-1.84l-1.76-.66a153.2,153.2,0,0,1-98.51-135.28c-.08-1.63-.14-3.26-.17-4.9,0-.33,0-.67,0-1s0-.48,0-.72c0-.42,0-.84,0-1.26,0-1.82,0-3.63.1-5.43,0-.57,0-1.13.07-1.7l0-.75c.07-1.3.15-2.6.25-3.9.05-.64.1-1.29.16-1.94.12-1.29.25-2.58.39-3.86s.31-2.56.49-3.83c.27-1.91.57-3.8.91-5.69a151.68,151.68,0,0,1,16.58-46.77c.26-.48.52-1,.79-1.42A152.55,152.55,0,0,1,219.76,159c.21-.28.42-.57.64-.85a154.11,154.11,0,0,1,11.46-13.52l.09-.09a153.45,153.45,0,0,1,17.71-15.89q4.38-3.36,9-6.41t9.47-5.75c1.08-.6,2.16-1.19,3.25-1.77s2.2-1.14,3.3-1.69l2.21-1.07c1.33-.63,2.66-1.25,4-1.84l1-.46c1-.42,1.94-.83,2.92-1.23,1.15-.47,2.31-.92,3.47-1.37l1.76-.65c.73-.27,1.47-.53,2.22-.79,1-.36,2.06-.71,3.1-1l1.79-.57c1.2-.37,2.4-.73,3.61-1.07q4.54-1.29,9.2-2.31c1.24-.27,2.49-.52,3.74-.76s2.5-.47,3.77-.68q2.84-.47,5.71-.83c1.28-.16,2.56-.31,3.85-.44l1.93-.19c1.29-.11,2.59-.21,3.89-.29q4.88-.32,9.83-.31t9.83.31c1.3.08,2.6.18,3.89.29l1.93.19c1.29.13,2.57.28,3.85.44,1.91.24,3.82.52,5.71.83,1.27.21,2.52.44,3.77.68s2.5.49,3.74.76c3.1.68,6.17,1.45,9.19,2.31,1.21.34,2.42.7,3.62,1.07l1.79.57c1,.34,2.07.69,3.1,1,.75.26,1.49.52,2.22.79l1.76.65c1.16.45,2.32.9,3.47,1.37,1,.4,1.95.81,2.92,1.23l1,.46c1.35.59,2.68,1.21,4,1.84l2.21,1.07c1.1.55,2.2,1.12,3.3,1.69s2.17,1.17,3.25,1.77q4.85,2.71,9.47,5.75t9,6.41a153.45,153.45,0,0,1,17.71,15.89l.09.09a154.11,154.11,0,0,1,11.46,13.52l.65.85A155.76,155.76,0,0,1,476.07,175c.27.47.53.94.79,1.42a151.94,151.94,0,0,1,16.58,46.77c.34,1.89.64,3.78.91,5.69.18,1.27.34,2.55.49,3.83s.27,2.57.39,3.86c.06.65.11,1.3.16,1.94.1,1.3.18,2.6.25,3.9Q495.84,246.27,495.83,250.24Z"/><circle class="cls-9" cx="342.73" cy="250.24" r="127.38"/><circle class="cls-4" cx="342.73" cy="250.24" r="100.87"/><circle class="cls-9" cx="342.73" cy="250.24" r="76.49"/><path class="cls-10" d="M443.74,250.38A100.87,100.87,0,0,1,348,351.13l-51.29-39.79a76.49,76.49,0,0,0,95.79-119.2l49.31,38.26A101.19,101.19,0,0,1,443.74,250.38Z"/><path class="cls-10" d="M495.83,250.24c0,.66,0,1.32,0,2,0,2-.08,3.94-.18,5.9A153.19,153.19,0,0,1,397.13,393.4l-1.76.66q-2.64,1-5.32,1.84l-1.79.57q-5.4,1.66-10.95,3l-3.72.81q-4.68,1-9.45,1.62l-1.91.26c-1.28.16-2.56.31-3.85.44-.64.06-1.28.13-1.93.18-1.29.12-2.59.22-3.89.3-3.25.2-6.53.31-9.83.31s-6.58-.11-9.83-.31l-1.48-.1-69.61-54,.15-.19A127.38,127.38,0,1,0,418.07,147.53l.07-.1,69.8,54.16a150.18,150.18,0,0,1,5.5,21.55c.34,1.89.64,3.78.91,5.69.18,1.27.34,2.55.49,3.83s.27,2.57.39,3.86c.06.65.11,1.3.16,1.94.1,1.3.18,2.6.25,3.9Q495.84,246.27,495.83,250.24Z"/><path class="cls-7" d="M333.8,219,308,263.69a10.31,10.31,0,0,0,8.93,15.47h51.6a10.31,10.31,0,0,0,8.93-15.47L351.66,219A10.31,10.31,0,0,0,333.8,219Z"/><path class="cls-9" d="M341.85,258.33q-.14-3.08-.52-6.25c-.26-2.11-.52-4.2-.8-6.26s-.52-4.07-.75-6a49.94,49.94,0,0,1-.33-5.57,5.5,5.5,0,0,1,.28-1.83,4.81,4.81,0,0,1,.73-1.39,3.39,3.39,0,0,1,1.06-.88,2.69,2.69,0,0,1,1.21-.31,2.9,2.9,0,0,1,2.33,1.18,5,5,0,0,1,.95,3.23,49.94,49.94,0,0,1-.33,5.57c-.23,2-.48,4-.76,6s-.56,4.15-.83,6.26-.44,4.2-.51,6.25Zm.88,4.48a3.11,3.11,0,0,1,1.19.22,3.07,3.07,0,0,1,1,.63,3.18,3.18,0,0,1,.65.93,2.79,2.79,0,0,1,.24,1.15,2.83,2.83,0,0,1-.24,1.16,3.15,3.15,0,0,1-.65,1,3.23,3.23,0,0,1-1,.62,3.11,3.11,0,0,1-1.19.23,3.17,3.17,0,0,1-1.2-.23,3,3,0,0,1-1-.62,3,3,0,0,1-.66-1,2.83,2.83,0,0,1-.24-1.16,2.79,2.79,0,0,1,.24-1.15,3,3,0,0,1,.66-.93,2.9,2.9,0,0,1,1-.63A3.16,3.16,0,0,1,342.73,262.81Z"/><path class="cls-11" d="M484.33,101.15l0,23.77,23.52-.14-36.16,36.15-18.32-.45-98.93,98.93a3.23,3.23,0,0,1-4.55,0l-.26-.26a3.23,3.23,0,0,1,0-4.55l99-99-.59-18.19Z"/><path class="cls-2" d="M484.36,124.92l23.52-.14-36.16,36.15-18.32-.45-98.93,98.93a3.23,3.23,0,0,1-4.55,0l-.13-.13L484.36,124.71Z"/></svg>