<svg viewBox="0 0 90 90" xmlns="http://www.w3.org/2000/svg"><path d="m12.25 81.11v4.3a2.79 2.79 0 0 0 2.75 2.79h60a2.79 2.79 0 0 0 2.79-2.79v-80.82a2.79 2.79 0 0 0 -2.79-2.79h-60a2.78 2.78 0 0 0 -2.78 2.78v79.42" fill="#fff"/><path d="m75 90h-60a4.59 4.59 0 0 1 -4.59-4.59v-80.83a4.58 4.58 0 0 1 4.59-4.58h60a4.59 4.59 0 0 1 4.59 4.59v80.82a4.59 4.59 0 0 1 -4.59 4.59zm-60.95-8.89v4.3a1 1 0 0 0 1 1h59.95a1 1 0 0 0 1-1v-80.82a1 1 0 0 0 -1-1h-60a1 1 0 0 0 -1 1z" fill="#576065"/><path d="m19.68 11.95h19.69v9.39h-19.69z" fill="#ff8898"/><circle cx="25.63" cy="36.34" fill="#94d5d2" r="5.96"/><circle cx="25.63" cy="54.21" fill="#94d5d2" r="5.96"/><circle cx="25.63" cy="72.09" fill="#94d5d2" r="5.96"/><g fill="#576065"><path d="m42.99 17.41h27.33v3.93h-27.33z"/><path d="m42.99 11.95h27.33v3.93h-27.33z"/><path d="m75 90h-60a4.59 4.59 0 0 1 -4.59-4.59v-80.83a4.58 4.58 0 0 1 4.59-4.58h60a4.59 4.59 0 0 1 4.59 4.59v80.82a4.59 4.59 0 0 1 -4.59 4.59zm-60.95-8.89v4.3a1 1 0 0 0 1 1h59.95a1 1 0 0 0 1-1v-80.82a1 1 0 0 0 -1-1h-60a1 1 0 0 0 -1 1z"/><path d="m25.63 40.55-4.25-4.25a1.8 1.8 0 1 1 2.55-2.55l1.71 1.71 4.69-4.69a1.8 1.8 0 0 1 2.55 2.55z"/><path d="m25.63 58.43-4.25-4.25a1.8 1.8 0 0 1 2.55-2.55l1.71 1.71 4.69-4.69a1.8 1.8 0 1 1 2.55 2.55z"/><path d="m25.63 76.3-4.25-4.25a1.8 1.8 0 1 1 2.55-2.55l1.71 1.71 4.69-4.69a1.8 1.8 0 1 1 2.55 2.55z"/><path d="m40.53 31.74h29.79v3.6h-29.79z"/><path d="m40.53 37.69h17.88v3.6h-17.88z"/><path d="m40.53 49.61h8.94v3.6h-8.94z"/><path d="m52.45 49.61h17.88v3.6h-17.88z"/><path d="m40.53 55.57h23.84v3.6h-23.84z"/><path d="m40.53 67.49h29.79v3.6h-29.79z"/><path d="m40.53 73.45h8.94v3.6h-8.94z"/><path d="m52.45 73.45h8.94v3.6h-8.94z"/></g></svg>